ISO-10303-21;
HEADER;
/* Generated by software containing ST-Developer
 * from STEP Tools, Inc. (www.steptools.com) 
 */

FILE_DESCRIPTION(
/* description */ (''),
/* implementation_level */ '2;1');

FILE_NAME(
/* name */ 'base.step',
/* time_stamp */ '2026-02-16T19:43:24+05:30',
/* author */ (''),
/* organization */ (''),
/* preprocessor_version */ 'ST-DEVELOPER v20.1',
/* originating_system */ 'Autodesk Translation Framework v14.24.0.0',
/* authorisation */ '');

FILE_SCHEMA (('AUTOMOTIVE_DESIGN { 1 0 10303 214 3 1 1 }'));
ENDSEC;

DATA;
#10=MECHANICAL_DESIGN_GEOMETRIC_PRESENTATION_REPRESENTATION('',(#13),#739);
#11=SHAPE_REPRESENTATION_RELATIONSHIP('SRR','None',#746,#12);
#12=ADVANCED_BREP_SHAPE_REPRESENTATION('',(#14),#738);
#13=STYLED_ITEM('',(#756),#14);
#14=MANIFOLD_SOLID_BREP('Body1',#447);
#15=FACE_BOUND('',#77,.T.);
#16=FACE_BOUND('',#78,.T.);
#17=CIRCLE('',#472,5.);
#18=CIRCLE('',#473,5.);
#19=CIRCLE('',#476,5.);
#20=CIRCLE('',#478,5.);
#21=CIRCLE('',#479,5.);
#22=CIRCLE('',#481,5.);
#23=CIRCLE('',#484,5.);
#24=CIRCLE('',#487,5.);
#25=CYLINDRICAL_SURFACE('',#471,5.);
#26=CYLINDRICAL_SURFACE('',#477,5.);
#27=CYLINDRICAL_SURFACE('',#483,5.);
#28=CYLINDRICAL_SURFACE('',#486,5.);
#29=FACE_OUTER_BOUND('',#53,.T.);
#30=FACE_OUTER_BOUND('',#54,.T.);
#31=FACE_OUTER_BOUND('',#55,.T.);
#32=FACE_OUTER_BOUND('',#56,.T.);
#33=FACE_OUTER_BOUND('',#57,.T.);
#34=FACE_OUTER_BOUND('',#58,.T.);
#35=FACE_OUTER_BOUND('',#59,.T.);
#36=FACE_OUTER_BOUND('',#60,.T.);
#37=FACE_OUTER_BOUND('',#61,.T.);
#38=FACE_OUTER_BOUND('',#62,.T.);
#39=FACE_OUTER_BOUND('',#63,.T.);
#40=FACE_OUTER_BOUND('',#64,.T.);
#41=FACE_OUTER_BOUND('',#65,.T.);
#42=FACE_OUTER_BOUND('',#66,.T.);
#43=FACE_OUTER_BOUND('',#67,.T.);
#44=FACE_OUTER_BOUND('',#68,.T.);
#45=FACE_OUTER_BOUND('',#69,.T.);
#46=FACE_OUTER_BOUND('',#70,.T.);
#47=FACE_OUTER_BOUND('',#71,.T.);
#48=FACE_OUTER_BOUND('',#72,.T.);
#49=FACE_OUTER_BOUND('',#73,.T.);
#50=FACE_OUTER_BOUND('',#74,.T.);
#51=FACE_OUTER_BOUND('',#75,.T.);
#52=FACE_OUTER_BOUND('',#76,.T.);
#53=EDGE_LOOP('',(#283,#284,#285,#286));
#54=EDGE_LOOP('',(#287,#288,#289,#290));
#55=EDGE_LOOP('',(#291,#292,#293,#294));
#56=EDGE_LOOP('',(#295,#296,#297,#298));
#57=EDGE_LOOP('',(#299,#300,#301,#302));
#58=EDGE_LOOP('',(#303,#304,#305,#306));
#59=EDGE_LOOP('',(#307,#308,#309,#310));
#60=EDGE_LOOP('',(#311,#312,#313,#314));
#61=EDGE_LOOP('',(#315,#316,#317,#318));
#62=EDGE_LOOP('',(#319,#320,#321,#322));
#63=EDGE_LOOP('',(#323,#324,#325,#326));
#64=EDGE_LOOP('',(#327,#328,#329,#330));
#65=EDGE_LOOP('',(#331,#332,#333,#334,#335,#336));
#66=EDGE_LOOP('',(#337,#338,#339,#340));
#67=EDGE_LOOP('',(#341,#342,#343,#344,#345,#346));
#68=EDGE_LOOP('',(#347,#348,#349,#350));
#69=EDGE_LOOP('',(#351,#352,#353,#354));
#70=EDGE_LOOP('',(#355,#356,#357,#358,#359,#360,#361,#362));
#71=EDGE_LOOP('',(#363,#364,#365,#366));
#72=EDGE_LOOP('',(#367,#368,#369,#370));
#73=EDGE_LOOP('',(#371,#372,#373,#374));
#74=EDGE_LOOP('',(#375,#376,#377,#378));
#75=EDGE_LOOP('',(#379,#380,#381,#382,#383,#384,#385,#386));
#76=EDGE_LOOP('',(#387,#388,#389,#390,#391,#392,#393,#394));
#77=EDGE_LOOP('',(#395,#396,#397,#398));
#78=EDGE_LOOP('',(#399,#400,#401,#402));
#79=LINE('',#615,#131);
#80=LINE('',#617,#132);
#81=LINE('',#619,#133);
#82=LINE('',#620,#134);
#83=LINE('',#623,#135);
#84=LINE('',#625,#136);
#85=LINE('',#626,#137);
#86=LINE('',#629,#138);
#87=LINE('',#631,#139);
#88=LINE('',#632,#140);
#89=LINE('',#634,#141);
#90=LINE('',#635,#142);
#91=LINE('',#640,#143);
#92=LINE('',#642,#144);
#93=LINE('',#644,#145);
#94=LINE('',#645,#146);
#95=LINE('',#648,#147);
#96=LINE('',#650,#148);
#97=LINE('',#651,#149);
#98=LINE('',#654,#150);
#99=LINE('',#656,#151);
#100=LINE('',#657,#152);
#101=LINE('',#659,#153);
#102=LINE('',#660,#154);
#103=LINE('',#667,#155);
#104=LINE('',#670,#156);
#105=LINE('',#673,#157);
#106=LINE('',#675,#158);
#107=LINE('',#676,#159);
#108=LINE('',#679,#160);
#109=LINE('',#681,#161);
#110=LINE('',#683,#162);
#111=LINE('',#690,#163);
#112=LINE('',#693,#164);
#113=LINE('',#696,#165);
#114=LINE('',#700,#166);
#115=LINE('',#702,#167);
#116=LINE('',#703,#168);
#117=LINE('',#706,#169);
#118=LINE('',#707,#170);
#119=LINE('',#711,#171);
#120=LINE('',#714,#172);
#121=LINE('',#716,#173);
#122=LINE('',#717,#174);
#123=LINE('',#719,#175);
#124=LINE('',#720,#176);
#125=LINE('',#725,#177);
#126=LINE('',#726,#178);
#127=LINE('',#729,#179);
#128=LINE('',#730,#180);
#129=LINE('',#732,#181);
#130=LINE('',#734,#182);
#131=VECTOR('',#497,10.);
#132=VECTOR('',#498,10.);
#133=VECTOR('',#499,10.);
#134=VECTOR('',#500,10.);
#135=VECTOR('',#503,10.);
#136=VECTOR('',#504,10.);
#137=VECTOR('',#505,10.);
#138=VECTOR('',#508,10.);
#139=VECTOR('',#509,10.);
#140=VECTOR('',#510,10.);
#141=VECTOR('',#513,10.);
#142=VECTOR('',#514,10.);
#143=VECTOR('',#519,10.);
#144=VECTOR('',#520,10.);
#145=VECTOR('',#521,10.);
#146=VECTOR('',#522,10.);
#147=VECTOR('',#525,10.);
#148=VECTOR('',#526,10.);
#149=VECTOR('',#527,10.);
#150=VECTOR('',#530,10.);
#151=VECTOR('',#531,10.);
#152=VECTOR('',#532,10.);
#153=VECTOR('',#535,10.);
#154=VECTOR('',#536,10.);
#155=VECTOR('',#543,10.);
#156=VECTOR('',#546,10.);
#157=VECTOR('',#549,10.);
#158=VECTOR('',#550,10.);
#159=VECTOR('',#551,10.);
#160=VECTOR('',#554,10.);
#161=VECTOR('',#555,10.);
#162=VECTOR('',#556,10.);
#163=VECTOR('',#563,10.);
#164=VECTOR('',#566,10.);
#165=VECTOR('',#569,10.);
#166=VECTOR('',#572,10.);
#167=VECTOR('',#573,10.);
#168=VECTOR('',#574,10.);
#169=VECTOR('',#577,10.);
#170=VECTOR('',#578,10.);
#171=VECTOR('',#583,10.);
#172=VECTOR('',#586,10.);
#173=VECTOR('',#587,10.);
#174=VECTOR('',#588,10.);
#175=VECTOR('',#589,10.);
#176=VECTOR('',#590,10.);
#177=VECTOR('',#597,10.);
#178=VECTOR('',#598,10.);
#179=VECTOR('',#601,10.);
#180=VECTOR('',#602,10.);
#181=VECTOR('',#605,10.);
#182=VECTOR('',#608,10.);
#183=VERTEX_POINT('',#613);
#184=VERTEX_POINT('',#614);
#185=VERTEX_POINT('',#616);
#186=VERTEX_POINT('',#618);
#187=VERTEX_POINT('',#622);
#188=VERTEX_POINT('',#624);
#189=VERTEX_POINT('',#628);
#190=VERTEX_POINT('',#630);
#191=VERTEX_POINT('',#638);
#192=VERTEX_POINT('',#639);
#193=VERTEX_POINT('',#641);
#194=VERTEX_POINT('',#643);
#195=VERTEX_POINT('',#647);
#196=VERTEX_POINT('',#649);
#197=VERTEX_POINT('',#653);
#198=VERTEX_POINT('',#655);
#199=VERTEX_POINT('',#663);
#200=VERTEX_POINT('',#664);
#201=VERTEX_POINT('',#666);
#202=VERTEX_POINT('',#668);
#203=VERTEX_POINT('',#672);
#204=VERTEX_POINT('',#674);
#205=VERTEX_POINT('',#678);
#206=VERTEX_POINT('',#680);
#207=VERTEX_POINT('',#682);
#208=VERTEX_POINT('',#686);
#209=VERTEX_POINT('',#687);
#210=VERTEX_POINT('',#689);
#211=VERTEX_POINT('',#691);
#212=VERTEX_POINT('',#695);
#213=VERTEX_POINT('',#697);
#214=VERTEX_POINT('',#699);
#215=VERTEX_POINT('',#701);
#216=VERTEX_POINT('',#705);
#217=VERTEX_POINT('',#709);
#218=VERTEX_POINT('',#713);
#219=VERTEX_POINT('',#715);
#220=VERTEX_POINT('',#718);
#221=VERTEX_POINT('',#724);
#222=VERTEX_POINT('',#728);
#223=EDGE_CURVE('',#183,#184,#79,.T.);
#224=EDGE_CURVE('',#184,#185,#80,.T.);
#225=EDGE_CURVE('',#186,#185,#81,.T.);
#226=EDGE_CURVE('',#183,#186,#82,.T.);
#227=EDGE_CURVE('',#184,#187,#83,.T.);
#228=EDGE_CURVE('',#187,#188,#84,.T.);
#229=EDGE_CURVE('',#185,#188,#85,.T.);
#230=EDGE_CURVE('',#187,#189,#86,.T.);
#231=EDGE_CURVE('',#189,#190,#87,.T.);
#232=EDGE_CURVE('',#188,#190,#88,.T.);
#233=EDGE_CURVE('',#189,#183,#89,.T.);
#234=EDGE_CURVE('',#190,#186,#90,.T.);
#235=EDGE_CURVE('',#191,#192,#91,.T.);
#236=EDGE_CURVE('',#192,#193,#92,.T.);
#237=EDGE_CURVE('',#194,#193,#93,.T.);
#238=EDGE_CURVE('',#191,#194,#94,.T.);
#239=EDGE_CURVE('',#192,#195,#95,.T.);
#240=EDGE_CURVE('',#195,#196,#96,.T.);
#241=EDGE_CURVE('',#193,#196,#97,.T.);
#242=EDGE_CURVE('',#195,#197,#98,.T.);
#243=EDGE_CURVE('',#197,#198,#99,.T.);
#244=EDGE_CURVE('',#196,#198,#100,.T.);
#245=EDGE_CURVE('',#197,#191,#101,.T.);
#246=EDGE_CURVE('',#198,#194,#102,.T.);
#247=EDGE_CURVE('',#199,#200,#17,.T.);
#248=EDGE_CURVE('',#200,#201,#103,.T.);
#249=EDGE_CURVE('',#201,#202,#18,.T.);
#250=EDGE_CURVE('',#202,#199,#104,.T.);
#251=EDGE_CURVE('',#203,#202,#105,.T.);
#252=EDGE_CURVE('',#204,#203,#106,.T.);
#253=EDGE_CURVE('',#199,#204,#107,.T.);
#254=EDGE_CURVE('',#201,#205,#108,.T.);
#255=EDGE_CURVE('',#205,#206,#109,.T.);
#256=EDGE_CURVE('',#206,#207,#110,.T.);
#257=EDGE_CURVE('',#203,#207,#19,.T.);
#258=EDGE_CURVE('',#208,#209,#20,.T.);
#259=EDGE_CURVE('',#209,#210,#111,.T.);
#260=EDGE_CURVE('',#210,#211,#21,.T.);
#261=EDGE_CURVE('',#211,#208,#112,.T.);
#262=EDGE_CURVE('',#208,#212,#113,.T.);
#263=EDGE_CURVE('',#213,#212,#22,.T.);
#264=EDGE_CURVE('',#213,#214,#114,.T.);
#265=EDGE_CURVE('',#214,#215,#115,.T.);
#266=EDGE_CURVE('',#215,#209,#116,.T.);
#267=EDGE_CURVE('',#216,#211,#117,.T.);
#268=EDGE_CURVE('',#212,#216,#118,.T.);
#269=EDGE_CURVE('',#217,#204,#23,.T.);
#270=EDGE_CURVE('',#207,#217,#119,.T.);
#271=EDGE_CURVE('',#218,#206,#120,.T.);
#272=EDGE_CURVE('',#219,#218,#121,.T.);
#273=EDGE_CURVE('',#219,#214,#122,.T.);
#274=EDGE_CURVE('',#220,#213,#123,.T.);
#275=EDGE_CURVE('',#217,#220,#124,.T.);
#276=EDGE_CURVE('',#216,#220,#24,.T.);
#277=EDGE_CURVE('',#218,#221,#125,.T.);
#278=EDGE_CURVE('',#221,#205,#126,.T.);
#279=EDGE_CURVE('',#221,#222,#127,.T.);
#280=EDGE_CURVE('',#222,#219,#128,.T.);
#281=EDGE_CURVE('',#222,#215,#129,.T.);
#282=EDGE_CURVE('',#210,#200,#130,.T.);
#283=ORIENTED_EDGE('',*,*,#223,.T.);
#284=ORIENTED_EDGE('',*,*,#224,.T.);
#285=ORIENTED_EDGE('',*,*,#225,.F.);
#286=ORIENTED_EDGE('',*,*,#226,.F.);
#287=ORIENTED_EDGE('',*,*,#227,.T.);
#288=ORIENTED_EDGE('',*,*,#228,.T.);
#289=ORIENTED_EDGE('',*,*,#229,.F.);
#290=ORIENTED_EDGE('',*,*,#224,.F.);
#291=ORIENTED_EDGE('',*,*,#230,.T.);
#292=ORIENTED_EDGE('',*,*,#231,.T.);
#293=ORIENTED_EDGE('',*,*,#232,.F.);
#294=ORIENTED_EDGE('',*,*,#228,.F.);
#295=ORIENTED_EDGE('',*,*,#233,.T.);
#296=ORIENTED_EDGE('',*,*,#226,.T.);
#297=ORIENTED_EDGE('',*,*,#234,.F.);
#298=ORIENTED_EDGE('',*,*,#231,.F.);
#299=ORIENTED_EDGE('',*,*,#233,.F.);
#300=ORIENTED_EDGE('',*,*,#230,.F.);
#301=ORIENTED_EDGE('',*,*,#227,.F.);
#302=ORIENTED_EDGE('',*,*,#223,.F.);
#303=ORIENTED_EDGE('',*,*,#235,.T.);
#304=ORIENTED_EDGE('',*,*,#236,.T.);
#305=ORIENTED_EDGE('',*,*,#237,.F.);
#306=ORIENTED_EDGE('',*,*,#238,.F.);
#307=ORIENTED_EDGE('',*,*,#239,.T.);
#308=ORIENTED_EDGE('',*,*,#240,.T.);
#309=ORIENTED_EDGE('',*,*,#241,.F.);
#310=ORIENTED_EDGE('',*,*,#236,.F.);
#311=ORIENTED_EDGE('',*,*,#242,.T.);
#312=ORIENTED_EDGE('',*,*,#243,.T.);
#313=ORIENTED_EDGE('',*,*,#244,.F.);
#314=ORIENTED_EDGE('',*,*,#240,.F.);
#315=ORIENTED_EDGE('',*,*,#245,.T.);
#316=ORIENTED_EDGE('',*,*,#238,.T.);
#317=ORIENTED_EDGE('',*,*,#246,.F.);
#318=ORIENTED_EDGE('',*,*,#243,.F.);
#319=ORIENTED_EDGE('',*,*,#245,.F.);
#320=ORIENTED_EDGE('',*,*,#242,.F.);
#321=ORIENTED_EDGE('',*,*,#239,.F.);
#322=ORIENTED_EDGE('',*,*,#235,.F.);
#323=ORIENTED_EDGE('',*,*,#247,.T.);
#324=ORIENTED_EDGE('',*,*,#248,.T.);
#325=ORIENTED_EDGE('',*,*,#249,.T.);
#326=ORIENTED_EDGE('',*,*,#250,.T.);
#327=ORIENTED_EDGE('',*,*,#250,.F.);
#328=ORIENTED_EDGE('',*,*,#251,.F.);
#329=ORIENTED_EDGE('',*,*,#252,.F.);
#330=ORIENTED_EDGE('',*,*,#253,.F.);
#331=ORIENTED_EDGE('',*,*,#249,.F.);
#332=ORIENTED_EDGE('',*,*,#254,.T.);
#333=ORIENTED_EDGE('',*,*,#255,.T.);
#334=ORIENTED_EDGE('',*,*,#256,.T.);
#335=ORIENTED_EDGE('',*,*,#257,.F.);
#336=ORIENTED_EDGE('',*,*,#251,.T.);
#337=ORIENTED_EDGE('',*,*,#258,.T.);
#338=ORIENTED_EDGE('',*,*,#259,.T.);
#339=ORIENTED_EDGE('',*,*,#260,.T.);
#340=ORIENTED_EDGE('',*,*,#261,.T.);
#341=ORIENTED_EDGE('',*,*,#258,.F.);
#342=ORIENTED_EDGE('',*,*,#262,.T.);
#343=ORIENTED_EDGE('',*,*,#263,.F.);
#344=ORIENTED_EDGE('',*,*,#264,.T.);
#345=ORIENTED_EDGE('',*,*,#265,.T.);
#346=ORIENTED_EDGE('',*,*,#266,.T.);
#347=ORIENTED_EDGE('',*,*,#261,.F.);
#348=ORIENTED_EDGE('',*,*,#267,.F.);
#349=ORIENTED_EDGE('',*,*,#268,.F.);
#350=ORIENTED_EDGE('',*,*,#262,.F.);
#351=ORIENTED_EDGE('',*,*,#269,.T.);
#352=ORIENTED_EDGE('',*,*,#252,.T.);
#353=ORIENTED_EDGE('',*,*,#257,.T.);
#354=ORIENTED_EDGE('',*,*,#270,.T.);
#355=ORIENTED_EDGE('',*,*,#270,.F.);
#356=ORIENTED_EDGE('',*,*,#256,.F.);
#357=ORIENTED_EDGE('',*,*,#271,.F.);
#358=ORIENTED_EDGE('',*,*,#272,.F.);
#359=ORIENTED_EDGE('',*,*,#273,.T.);
#360=ORIENTED_EDGE('',*,*,#264,.F.);
#361=ORIENTED_EDGE('',*,*,#274,.F.);
#362=ORIENTED_EDGE('',*,*,#275,.F.);
#363=ORIENTED_EDGE('',*,*,#276,.T.);
#364=ORIENTED_EDGE('',*,*,#274,.T.);
#365=ORIENTED_EDGE('',*,*,#263,.T.);
#366=ORIENTED_EDGE('',*,*,#268,.T.);
#367=ORIENTED_EDGE('',*,*,#277,.F.);
#368=ORIENTED_EDGE('',*,*,#271,.T.);
#369=ORIENTED_EDGE('',*,*,#255,.F.);
#370=ORIENTED_EDGE('',*,*,#278,.F.);
#371=ORIENTED_EDGE('',*,*,#277,.T.);
#372=ORIENTED_EDGE('',*,*,#279,.T.);
#373=ORIENTED_EDGE('',*,*,#280,.T.);
#374=ORIENTED_EDGE('',*,*,#272,.T.);
#375=ORIENTED_EDGE('',*,*,#280,.F.);
#376=ORIENTED_EDGE('',*,*,#281,.T.);
#377=ORIENTED_EDGE('',*,*,#265,.F.);
#378=ORIENTED_EDGE('',*,*,#273,.F.);
#379=ORIENTED_EDGE('',*,*,#248,.F.);
#380=ORIENTED_EDGE('',*,*,#282,.F.);
#381=ORIENTED_EDGE('',*,*,#259,.F.);
#382=ORIENTED_EDGE('',*,*,#266,.F.);
#383=ORIENTED_EDGE('',*,*,#281,.F.);
#384=ORIENTED_EDGE('',*,*,#279,.F.);
#385=ORIENTED_EDGE('',*,*,#278,.T.);
#386=ORIENTED_EDGE('',*,*,#254,.F.);
#387=ORIENTED_EDGE('',*,*,#247,.F.);
#388=ORIENTED_EDGE('',*,*,#253,.T.);
#389=ORIENTED_EDGE('',*,*,#269,.F.);
#390=ORIENTED_EDGE('',*,*,#275,.T.);
#391=ORIENTED_EDGE('',*,*,#276,.F.);
#392=ORIENTED_EDGE('',*,*,#267,.T.);
#393=ORIENTED_EDGE('',*,*,#260,.F.);
#394=ORIENTED_EDGE('',*,*,#282,.T.);
#395=ORIENTED_EDGE('',*,*,#225,.T.);
#396=ORIENTED_EDGE('',*,*,#229,.T.);
#397=ORIENTED_EDGE('',*,*,#232,.T.);
#398=ORIENTED_EDGE('',*,*,#234,.T.);
#399=ORIENTED_EDGE('',*,*,#237,.T.);
#400=ORIENTED_EDGE('',*,*,#241,.T.);
#401=ORIENTED_EDGE('',*,*,#244,.T.);
#402=ORIENTED_EDGE('',*,*,#246,.T.);
#403=PLANE('',#461);
#404=PLANE('',#462);
#405=PLANE('',#463);
#406=PLANE('',#464);
#407=PLANE('',#465);
#408=PLANE('',#466);
#409=PLANE('',#467);
#410=PLANE('',#468);
#411=PLANE('',#469);
#412=PLANE('',#470);
#413=PLANE('',#474);
#414=PLANE('',#475);
#415=PLANE('',#480);
#416=PLANE('',#482);
#417=PLANE('',#485);
#418=PLANE('',#488);
#419=PLANE('',#489);
#420=PLANE('',#490);
#421=PLANE('',#491);
#422=PLANE('',#492);
#423=ADVANCED_FACE('',(#29),#403,.F.);
#424=ADVANCED_FACE('',(#30),#404,.F.);
#425=ADVANCED_FACE('',(#31),#405,.F.);
#426=ADVANCED_FACE('',(#32),#406,.F.);
#427=ADVANCED_FACE('',(#33),#407,.F.);
#428=ADVANCED_FACE('',(#34),#408,.F.);
#429=ADVANCED_FACE('',(#35),#409,.F.);
#430=ADVANCED_FACE('',(#36),#410,.F.);
#431=ADVANCED_FACE('',(#37),#411,.F.);
#432=ADVANCED_FACE('',(#38),#412,.F.);
#433=ADVANCED_FACE('',(#39),#25,.T.);
#434=ADVANCED_FACE('',(#40),#413,.T.);
#435=ADVANCED_FACE('',(#41),#414,.T.);
#436=ADVANCED_FACE('',(#42),#26,.T.);
#437=ADVANCED_FACE('',(#43),#415,.T.);
#438=ADVANCED_FACE('',(#44),#416,.T.);
#439=ADVANCED_FACE('',(#45),#27,.T.);
#440=ADVANCED_FACE('',(#46),#417,.T.);
#441=ADVANCED_FACE('',(#47),#28,.T.);
#442=ADVANCED_FACE('',(#48),#418,.T.);
#443=ADVANCED_FACE('',(#49),#419,.F.);
#444=ADVANCED_FACE('',(#50),#420,.T.);
#445=ADVANCED_FACE('',(#51),#421,.T.);
#446=ADVANCED_FACE('',(#52,#15,#16),#422,.T.);
#447=CLOSED_SHELL('',(#423,#424,#425,#426,#427,#428,#429,#430,#431,#432,
#433,#434,#435,#436,#437,#438,#439,#440,#441,#442,#443,#444,#445,#446));
#448=DERIVED_UNIT_ELEMENT(#450,1.);
#449=DERIVED_UNIT_ELEMENT(#741,-3.);
#450=(
MASS_UNIT()
NAMED_UNIT(*)
SI_UNIT(.KILO.,.GRAM.)
);
#451=DERIVED_UNIT((#448,#449));
#452=MEASURE_REPRESENTATION_ITEM('density measure',
POSITIVE_RATIO_MEASURE(7850.),#451);
#453=PROPERTY_DEFINITION_REPRESENTATION(#458,#455);
#454=PROPERTY_DEFINITION_REPRESENTATION(#459,#456);
#455=REPRESENTATION('material name',(#457),#738);
#456=REPRESENTATION('density',(#452),#738);
#457=DESCRIPTIVE_REPRESENTATION_ITEM('Steel','Steel');
#458=PROPERTY_DEFINITION('material property','material name',#748);
#459=PROPERTY_DEFINITION('material property','density of part',#748);
#460=AXIS2_PLACEMENT_3D('',#611,#493,#494);
#461=AXIS2_PLACEMENT_3D('',#612,#495,#496);
#462=AXIS2_PLACEMENT_3D('',#621,#501,#502);
#463=AXIS2_PLACEMENT_3D('',#627,#506,#507);
#464=AXIS2_PLACEMENT_3D('',#633,#511,#512);
#465=AXIS2_PLACEMENT_3D('',#636,#515,#516);
#466=AXIS2_PLACEMENT_3D('',#637,#517,#518);
#467=AXIS2_PLACEMENT_3D('',#646,#523,#524);
#468=AXIS2_PLACEMENT_3D('',#652,#528,#529);
#469=AXIS2_PLACEMENT_3D('',#658,#533,#534);
#470=AXIS2_PLACEMENT_3D('',#661,#537,#538);
#471=AXIS2_PLACEMENT_3D('',#662,#539,#540);
#472=AXIS2_PLACEMENT_3D('',#665,#541,#542);
#473=AXIS2_PLACEMENT_3D('',#669,#544,#545);
#474=AXIS2_PLACEMENT_3D('',#671,#547,#548);
#475=AXIS2_PLACEMENT_3D('',#677,#552,#553);
#476=AXIS2_PLACEMENT_3D('',#684,#557,#558);
#477=AXIS2_PLACEMENT_3D('',#685,#559,#560);
#478=AXIS2_PLACEMENT_3D('',#688,#561,#562);
#479=AXIS2_PLACEMENT_3D('',#692,#564,#565);
#480=AXIS2_PLACEMENT_3D('',#694,#567,#568);
#481=AXIS2_PLACEMENT_3D('',#698,#570,#571);
#482=AXIS2_PLACEMENT_3D('',#704,#575,#576);
#483=AXIS2_PLACEMENT_3D('',#708,#579,#580);
#484=AXIS2_PLACEMENT_3D('',#710,#581,#582);
#485=AXIS2_PLACEMENT_3D('',#712,#584,#585);
#486=AXIS2_PLACEMENT_3D('',#721,#591,#592);
#487=AXIS2_PLACEMENT_3D('',#722,#593,#594);
#488=AXIS2_PLACEMENT_3D('',#723,#595,#596);
#489=AXIS2_PLACEMENT_3D('',#727,#599,#600);
#490=AXIS2_PLACEMENT_3D('',#731,#603,#604);
#491=AXIS2_PLACEMENT_3D('',#733,#606,#607);
#492=AXIS2_PLACEMENT_3D('',#735,#609,#610);
#493=DIRECTION('axis',(0.,0.,1.));
#494=DIRECTION('refdir',(1.,0.,0.));
#495=DIRECTION('center_axis',(0.,-1.,0.));
#496=DIRECTION('ref_axis',(1.,0.,0.));
#497=DIRECTION('',(-1.,0.,0.));
#498=DIRECTION('',(0.,0.,1.));
#499=DIRECTION('',(-1.,0.,0.));
#500=DIRECTION('',(0.,0.,1.));
#501=DIRECTION('center_axis',(-1.,0.,0.));
#502=DIRECTION('ref_axis',(0.,-1.,0.));
#503=DIRECTION('',(0.,1.,0.));
#504=DIRECTION('',(0.,0.,1.));
#505=DIRECTION('',(0.,1.,0.));
#506=DIRECTION('center_axis',(7.41450700576339E-16,1.,0.));
#507=DIRECTION('ref_axis',(-1.,7.41450700576339E-16,0.));
#508=DIRECTION('',(1.,-7.41450700576339E-16,0.));
#509=DIRECTION('',(0.,0.,1.));
#510=DIRECTION('',(1.,-7.41450700576339E-16,0.));
#511=DIRECTION('center_axis',(1.,1.27316359529159E-16,0.));
#512=DIRECTION('ref_axis',(-1.27316359529159E-16,1.,0.));
#513=DIRECTION('',(1.27316359529159E-16,-1.,0.));
#514=DIRECTION('',(1.27316359529159E-16,-1.,0.));
#515=DIRECTION('center_axis',(0.,0.,-1.));
#516=DIRECTION('ref_axis',(-1.,0.,0.));
#517=DIRECTION('center_axis',(0.,-1.,0.));
#518=DIRECTION('ref_axis',(1.,0.,0.));
#519=DIRECTION('',(-1.,0.,0.));
#520=DIRECTION('',(0.,0.,1.));
#521=DIRECTION('',(-1.,0.,0.));
#522=DIRECTION('',(0.,0.,1.));
#523=DIRECTION('center_axis',(-1.,0.,0.));
#524=DIRECTION('ref_axis',(0.,-1.,0.));
#525=DIRECTION('',(0.,1.,0.));
#526=DIRECTION('',(0.,0.,1.));
#527=DIRECTION('',(0.,1.,0.));
#528=DIRECTION('center_axis',(7.41450700576339E-16,1.,0.));
#529=DIRECTION('ref_axis',(-1.,7.41450700576339E-16,0.));
#530=DIRECTION('',(1.,-7.41450700576339E-16,0.));
#531=DIRECTION('',(0.,0.,1.));
#532=DIRECTION('',(1.,-7.41450700576339E-16,0.));
#533=DIRECTION('center_axis',(1.,1.27316359529159E-16,0.));
#534=DIRECTION('ref_axis',(-1.27316359529159E-16,1.,0.));
#535=DIRECTION('',(1.27316359529159E-16,-1.,0.));
#536=DIRECTION('',(1.27316359529159E-16,-1.,0.));
#537=DIRECTION('center_axis',(0.,0.,-1.));
#538=DIRECTION('ref_axis',(-1.,0.,0.));
#539=DIRECTION('center_axis',(0.,0.,1.));
#540=DIRECTION('ref_axis',(-0.707106781186547,0.707106781186547,0.));
#541=DIRECTION('center_axis',(0.,0.,-1.));
#542=DIRECTION('ref_axis',(-0.707106781186547,0.707106781186547,0.));
#543=DIRECTION('',(0.,0.,-1.));
#544=DIRECTION('center_axis',(0.,0.,1.));
#545=DIRECTION('ref_axis',(-0.707106781186547,0.707106781186547,0.));
#546=DIRECTION('',(0.,0.,1.));
#547=DIRECTION('center_axis',(-1.,0.,0.));
#548=DIRECTION('ref_axis',(0.,-1.,0.));
#549=DIRECTION('',(0.,1.,0.));
#550=DIRECTION('',(0.,0.,-1.));
#551=DIRECTION('',(0.,-1.,0.));
#552=DIRECTION('center_axis',(0.,0.,-1.));
#553=DIRECTION('ref_axis',(-1.,0.,0.));
#554=DIRECTION('',(1.,0.,0.));
#555=DIRECTION('',(0.,-1.,0.));
#556=DIRECTION('',(-1.,0.,0.));
#557=DIRECTION('center_axis',(0.,0.,1.));
#558=DIRECTION('ref_axis',(-0.707106781186547,-0.707106781186547,0.));
#559=DIRECTION('center_axis',(0.,0.,-1.));
#560=DIRECTION('ref_axis',(0.707106781186547,0.707106781186547,0.));
#561=DIRECTION('center_axis',(0.,0.,1.));
#562=DIRECTION('ref_axis',(0.707106781186547,0.707106781186547,0.));
#563=DIRECTION('',(0.,0.,1.));
#564=DIRECTION('center_axis',(0.,0.,-1.));
#565=DIRECTION('ref_axis',(0.707106781186547,0.707106781186547,0.));
#566=DIRECTION('',(0.,0.,-1.));
#567=DIRECTION('center_axis',(0.,0.,-1.));
#568=DIRECTION('ref_axis',(-1.,0.,0.));
#569=DIRECTION('',(0.,-1.,0.));
#570=DIRECTION('center_axis',(0.,0.,1.));
#571=DIRECTION('ref_axis',(0.707106781186547,-0.707106781186547,0.));
#572=DIRECTION('',(-1.,0.,0.));
#573=DIRECTION('',(0.,1.,0.));
#574=DIRECTION('',(1.,0.,0.));
#575=DIRECTION('center_axis',(1.,0.,0.));
#576=DIRECTION('ref_axis',(0.,1.,0.));
#577=DIRECTION('',(0.,1.,0.));
#578=DIRECTION('',(0.,0.,1.));
#579=DIRECTION('center_axis',(0.,0.,1.));
#580=DIRECTION('ref_axis',(-0.707106781186547,-0.707106781186547,0.));
#581=DIRECTION('center_axis',(0.,0.,-1.));
#582=DIRECTION('ref_axis',(-0.707106781186547,-0.707106781186547,0.));
#583=DIRECTION('',(0.,0.,1.));
#584=DIRECTION('center_axis',(0.,-1.,0.));
#585=DIRECTION('ref_axis',(1.,0.,0.));
#586=DIRECTION('',(0.,0.,-1.));
#587=DIRECTION('',(-1.,0.,0.));
#588=DIRECTION('',(0.,0.,-1.));
#589=DIRECTION('',(0.,0.,-1.));
#590=DIRECTION('',(1.,0.,0.));
#591=DIRECTION('center_axis',(0.,0.,1.));
#592=DIRECTION('ref_axis',(0.707106781186547,-0.707106781186547,0.));
#593=DIRECTION('center_axis',(0.,0.,-1.));
#594=DIRECTION('ref_axis',(0.707106781186547,-0.707106781186547,0.));
#595=DIRECTION('center_axis',(1.,0.,0.));
#596=DIRECTION('ref_axis',(0.,-1.,0.));
#597=DIRECTION('',(0.,1.,0.));
#598=DIRECTION('',(0.,0.,-1.));
#599=DIRECTION('center_axis',(0.,0.,1.));
#600=DIRECTION('ref_axis',(1.,0.,0.));
#601=DIRECTION('',(1.,0.,0.));
#602=DIRECTION('',(0.,-1.,0.));
#603=DIRECTION('center_axis',(-1.,0.,0.));
#604=DIRECTION('ref_axis',(0.,1.,0.));
#605=DIRECTION('',(0.,0.,-1.));
#606=DIRECTION('center_axis',(0.,1.,0.));
#607=DIRECTION('ref_axis',(-1.,0.,0.));
#608=DIRECTION('',(-1.,0.,0.));
#609=DIRECTION('center_axis',(0.,0.,1.));
#610=DIRECTION('ref_axis',(1.,0.,0.));
#611=CARTESIAN_POINT('',(0.,0.,0.));
#612=CARTESIAN_POINT('Origin',(-78.4800298773497,-70.0914357945319,10.));
#613=CARTESIAN_POINT('',(-66.5011023638989,-70.0914357945319,10.));
#614=CARTESIAN_POINT('',(-78.4800298773497,-70.0914357945319,10.));
#615=CARTESIAN_POINT('',(-78.4800298773497,-70.0914357945319,10.));
#616=CARTESIAN_POINT('',(-78.4800298773497,-70.0914357945319,20.));
#617=CARTESIAN_POINT('',(-78.4800298773497,-70.0914357945319,10.));
#618=CARTESIAN_POINT('',(-66.5011023638989,-70.0914357945319,20.));
#619=CARTESIAN_POINT('',(-39.2400149386748,-70.0914357945319,20.));
#620=CARTESIAN_POINT('',(-66.5011023638989,-70.0914357945319,10.));
#621=CARTESIAN_POINT('Origin',(-78.4800298773497,69.4316267537195,10.));
#622=CARTESIAN_POINT('',(-78.4800298773497,69.4316267537195,10.));
#623=CARTESIAN_POINT('',(-78.4800298773497,69.4316267537195,10.));
#624=CARTESIAN_POINT('',(-78.4800298773497,69.4316267537195,20.));
#625=CARTESIAN_POINT('',(-78.4800298773497,69.4316267537195,10.));
#626=CARTESIAN_POINT('',(-78.4800298773497,34.7158133768598,20.));
#627=CARTESIAN_POINT('Origin',(-66.5011023638989,69.4316267537195,10.));
#628=CARTESIAN_POINT('',(-66.5011023638989,69.4316267537195,10.));
#629=CARTESIAN_POINT('',(-66.5011023638989,69.4316267537195,10.));
#630=CARTESIAN_POINT('',(-66.5011023638989,69.4316267537195,20.));
#631=CARTESIAN_POINT('',(-66.5011023638989,69.4316267537195,10.));
#632=CARTESIAN_POINT('',(-33.2505511819494,69.4316267537195,20.));
#633=CARTESIAN_POINT('Origin',(-66.5011023638989,-70.0914357945319,10.));
#634=CARTESIAN_POINT('',(-66.5011023638989,-70.0914357945319,10.));
#635=CARTESIAN_POINT('',(-66.5011023638989,-35.0457178972659,20.));
#636=CARTESIAN_POINT('Origin',(-72.4905661206243,-0.329904520406172,10.));
#637=CARTESIAN_POINT('Origin',(66.5199701226503,-70.0914357945319,10.));
#638=CARTESIAN_POINT('',(78.4988976361011,-70.0914357945319,10.));
#639=CARTESIAN_POINT('',(66.5199701226503,-70.0914357945319,10.));
#640=CARTESIAN_POINT('',(66.5199701226503,-70.0914357945319,10.));
#641=CARTESIAN_POINT('',(66.5199701226503,-70.0914357945319,20.));
#642=CARTESIAN_POINT('',(66.5199701226503,-70.0914357945319,10.));
#643=CARTESIAN_POINT('',(78.4988976361011,-70.0914357945319,20.));
#644=CARTESIAN_POINT('',(33.2599850613252,-70.0914357945319,20.));
#645=CARTESIAN_POINT('',(78.4988976361011,-70.0914357945319,10.));
#646=CARTESIAN_POINT('Origin',(66.5199701226503,69.4316267537195,10.));
#647=CARTESIAN_POINT('',(66.5199701226503,69.4316267537195,10.));
#648=CARTESIAN_POINT('',(66.5199701226503,69.4316267537195,10.));
#649=CARTESIAN_POINT('',(66.5199701226503,69.4316267537195,20.));
#650=CARTESIAN_POINT('',(66.5199701226503,69.4316267537195,10.));
#651=CARTESIAN_POINT('',(66.5199701226503,34.7158133768598,20.));
#652=CARTESIAN_POINT('Origin',(78.4988976361011,69.4316267537195,10.));
#653=CARTESIAN_POINT('',(78.4988976361011,69.4316267537195,10.));
#654=CARTESIAN_POINT('',(78.4988976361011,69.4316267537195,10.));
#655=CARTESIAN_POINT('',(78.4988976361011,69.4316267537195,20.));
#656=CARTESIAN_POINT('',(78.4988976361011,69.4316267537195,10.));
#657=CARTESIAN_POINT('',(39.2494488180506,69.4316267537195,20.));
#658=CARTESIAN_POINT('Origin',(78.4988976361011,-70.0914357945319,10.));
#659=CARTESIAN_POINT('',(78.4988976361011,-70.0914357945319,10.));
#660=CARTESIAN_POINT('',(78.4988976361011,-35.0457178972659,20.));
#661=CARTESIAN_POINT('Origin',(72.5094338793757,-0.329904520406172,10.));
#662=CARTESIAN_POINT('Origin',(-75.,75.,15.));
#663=CARTESIAN_POINT('',(-80.,75.,20.));
#664=CARTESIAN_POINT('',(-75.,80.,20.));
#665=CARTESIAN_POINT('Origin',(-75.,75.,20.));
#666=CARTESIAN_POINT('',(-75.,80.,0.));
#667=CARTESIAN_POINT('',(-75.,80.,15.));
#668=CARTESIAN_POINT('',(-80.,75.,0.));
#669=CARTESIAN_POINT('Origin',(-75.,75.,0.));
#670=CARTESIAN_POINT('',(-80.,75.,15.));
#671=CARTESIAN_POINT('Origin',(-80.,80.,15.));
#672=CARTESIAN_POINT('',(-80.,-75.,0.));
#673=CARTESIAN_POINT('',(-80.,80.,0.));
#674=CARTESIAN_POINT('',(-80.,-75.,20.));
#675=CARTESIAN_POINT('',(-80.,-75.,15.));
#676=CARTESIAN_POINT('',(-80.,-80.,20.));
#677=CARTESIAN_POINT('Origin',(-72.5,0.,0.));
#678=CARTESIAN_POINT('',(-65.,80.,0.));
#679=CARTESIAN_POINT('',(-65.,80.,0.));
#680=CARTESIAN_POINT('',(-65.,-80.,0.));
#681=CARTESIAN_POINT('',(-65.,-80.,0.));
#682=CARTESIAN_POINT('',(-75.,-80.,0.));
#683=CARTESIAN_POINT('',(-80.,-80.,0.));
#684=CARTESIAN_POINT('Origin',(-75.,-75.,0.));
#685=CARTESIAN_POINT('Origin',(75.,75.,15.));
#686=CARTESIAN_POINT('',(80.,75.,0.));
#687=CARTESIAN_POINT('',(75.,80.,0.));
#688=CARTESIAN_POINT('Origin',(75.,75.,0.));
#689=CARTESIAN_POINT('',(75.,80.,20.));
#690=CARTESIAN_POINT('',(75.,80.,15.));
#691=CARTESIAN_POINT('',(80.,75.,20.));
#692=CARTESIAN_POINT('Origin',(75.,75.,20.));
#693=CARTESIAN_POINT('',(80.,75.,15.));
#694=CARTESIAN_POINT('Origin',(72.5,0.,0.));
#695=CARTESIAN_POINT('',(80.,-75.,0.));
#696=CARTESIAN_POINT('',(80.,80.,0.));
#697=CARTESIAN_POINT('',(75.,-80.,0.));
#698=CARTESIAN_POINT('Origin',(75.,-75.,0.));
#699=CARTESIAN_POINT('',(65.,-80.,0.));
#700=CARTESIAN_POINT('',(80.,-80.,0.));
#701=CARTESIAN_POINT('',(65.,80.,0.));
#702=CARTESIAN_POINT('',(65.,-80.,0.));
#703=CARTESIAN_POINT('',(65.,80.,0.));
#704=CARTESIAN_POINT('Origin',(80.,-80.,15.));
#705=CARTESIAN_POINT('',(80.,-75.,20.));
#706=CARTESIAN_POINT('',(80.,80.,20.));
#707=CARTESIAN_POINT('',(80.,-75.,15.));
#708=CARTESIAN_POINT('Origin',(-75.,-75.,15.));
#709=CARTESIAN_POINT('',(-75.,-80.,20.));
#710=CARTESIAN_POINT('Origin',(-75.,-75.,20.));
#711=CARTESIAN_POINT('',(-75.,-80.,15.));
#712=CARTESIAN_POINT('Origin',(-80.,-80.,15.));
#713=CARTESIAN_POINT('',(-65.,-80.,15.));
#714=CARTESIAN_POINT('',(-65.,-80.,15.));
#715=CARTESIAN_POINT('',(65.,-80.,15.));
#716=CARTESIAN_POINT('',(80.,-80.,15.));
#717=CARTESIAN_POINT('',(65.,-80.,15.));
#718=CARTESIAN_POINT('',(75.,-80.,20.));
#719=CARTESIAN_POINT('',(75.,-80.,15.));
#720=CARTESIAN_POINT('',(80.,-80.,20.));
#721=CARTESIAN_POINT('Origin',(75.,-75.,15.));
#722=CARTESIAN_POINT('Origin',(75.,-75.,20.));
#723=CARTESIAN_POINT('Origin',(-65.,80.,15.));
#724=CARTESIAN_POINT('',(-65.,80.,15.));
#725=CARTESIAN_POINT('',(-65.,40.,15.));
#726=CARTESIAN_POINT('',(-65.,80.,15.));
#727=CARTESIAN_POINT('Origin',(0.,0.,15.));
#728=CARTESIAN_POINT('',(65.,80.,15.));
#729=CARTESIAN_POINT('',(-80.,80.,15.));
#730=CARTESIAN_POINT('',(65.,-40.,15.));
#731=CARTESIAN_POINT('Origin',(65.,-80.,15.));
#732=CARTESIAN_POINT('',(65.,80.,15.));
#733=CARTESIAN_POINT('Origin',(80.,80.,15.));
#734=CARTESIAN_POINT('',(-80.,80.,20.));
#735=CARTESIAN_POINT('Origin',(0.,0.,20.));
#736=UNCERTAINTY_MEASURE_WITH_UNIT(LENGTH_MEASURE(0.01),#740,
'DISTANCE_ACCURACY_VALUE',
'Maximum model space distance between geometric entities at asserted c
onnectivities');
#737=UNCERTAINTY_MEASURE_WITH_UNIT(LENGTH_MEASURE(0.01),#740,
'DISTANCE_ACCURACY_VALUE',
'Maximum model space distance between geometric entities at asserted c
onnectivities');
#738=(
GEOMETRIC_REPRESENTATION_CONTEXT(3)
GLOBAL_UNCERTAINTY_ASSIGNED_CONTEXT((#736))
GLOBAL_UNIT_ASSIGNED_CONTEXT((#740,#742,#743))
REPRESENTATION_CONTEXT('','3D')
);
#739=(
GEOMETRIC_REPRESENTATION_CONTEXT(3)
GLOBAL_UNCERTAINTY_ASSIGNED_CONTEXT((#737))
GLOBAL_UNIT_ASSIGNED_CONTEXT((#740,#742,#743))
REPRESENTATION_CONTEXT('','3D')
);
#740=(
LENGTH_UNIT()
NAMED_UNIT(*)
SI_UNIT(.MILLI.,.METRE.)
);
#741=(
LENGTH_UNIT()
NAMED_UNIT(*)
SI_UNIT($,.METRE.)
);
#742=(
NAMED_UNIT(*)
PLANE_ANGLE_UNIT()
SI_UNIT($,.RADIAN.)
);
#743=(
NAMED_UNIT(*)
SI_UNIT($,.STERADIAN.)
SOLID_ANGLE_UNIT()
);
#744=SHAPE_DEFINITION_REPRESENTATION(#745,#746);
#745=PRODUCT_DEFINITION_SHAPE('',$,#748);
#746=SHAPE_REPRESENTATION('',(#460),#738);
#747=PRODUCT_DEFINITION_CONTEXT('part definition',#752,'design');
#748=PRODUCT_DEFINITION('2026-02-16-19-43-24-047','base',#749,#747);
#749=PRODUCT_DEFINITION_FORMATION('',$,#754);
#750=PRODUCT_RELATED_PRODUCT_CATEGORY('base','base',(#754));
#751=APPLICATION_PROTOCOL_DEFINITION('international standard',
'automotive_design',2009,#752);
#752=APPLICATION_CONTEXT(
'Core Data for Automotive Mechanical Design Process');
#753=PRODUCT_CONTEXT('part definition',#752,'mechanical');
#754=PRODUCT('2026-02-16-19-43-24-047','base',$,(#753));
#755=PRESENTATION_STYLE_ASSIGNMENT((#757));
#756=PRESENTATION_STYLE_ASSIGNMENT((#758));
#757=SURFACE_STYLE_USAGE(.BOTH.,#759);
#758=SURFACE_STYLE_USAGE(.BOTH.,#760);
#759=SURFACE_SIDE_STYLE('',(#761));
#760=SURFACE_SIDE_STYLE('',(#762));
#761=SURFACE_STYLE_FILL_AREA(#763);
#762=SURFACE_STYLE_FILL_AREA(#764);
#763=FILL_AREA_STYLE('Steel - Satin',(#765));
#764=FILL_AREA_STYLE('EPX 86FR (with Carbon M2 M3 L1 3D Printers)',(#766));
#765=FILL_AREA_STYLE_COLOUR('Steel - Satin',#767);
#766=FILL_AREA_STYLE_COLOUR(
'EPX 86FR (with Carbon M2 M3 L1 3D Printers)',#768);
#767=COLOUR_RGB('Steel - Satin',0.627450980392157,0.627450980392157,0.627450980392157);
#768=COLOUR_RGB('EPX 86FR (with Carbon M2 M3 L1 3D Printers)',0.247058823529412,
0.247058823529412,0.247058823529412);
ENDSEC;
END-ISO-10303-21;
