ISO-10303-21;
HEADER;
/* Generated by software containing ST-Developer
 * from STEP Tools, Inc. (www.steptools.com) 
 */

FILE_DESCRIPTION(
/* description */ (''),
/* implementation_level */ '2;1');

FILE_NAME(
/* name */ 'switch-rack.step',
/* time_stamp */ '2026-02-16T19:43:41+05:30',
/* author */ (''),
/* organization */ (''),
/* preprocessor_version */ 'ST-DEVELOPER v20.1',
/* originating_system */ 'Autodesk Translation Framework v14.24.0.0',
/* authorisation */ '');

FILE_SCHEMA (('AUTOMOTIVE_DESIGN { 1 0 10303 214 3 1 1 }'));
ENDSEC;

DATA;
#10=MECHANICAL_DESIGN_GEOMETRIC_PRESENTATION_REPRESENTATION('',(#13),#1023);
#11=SHAPE_REPRESENTATION_RELATIONSHIP('SRR','None',#1030,#12);
#12=ADVANCED_BREP_SHAPE_REPRESENTATION('',(#14),#1022);
#13=STYLED_ITEM('',(#1040),#14);
#14=MANIFOLD_SOLID_BREP('switch-rack',#627);
#15=FACE_BOUND('',#88,.T.);
#16=FACE_BOUND('',#89,.T.);
#17=FACE_BOUND('',#99,.T.);
#18=FACE_BOUND('',#102,.T.);
#19=CIRCLE('',#662,5.);
#20=CIRCLE('',#663,5.);
#21=CIRCLE('',#666,5.);
#22=CIRCLE('',#667,5.);
#23=CIRCLE('',#668,5.);
#24=CIRCLE('',#670,5.);
#25=CIRCLE('',#673,5.);
#26=CIRCLE('',#676,5.);
#27=CYLINDRICAL_SURFACE('',#661,5.);
#28=CYLINDRICAL_SURFACE('',#669,5.);
#29=CYLINDRICAL_SURFACE('',#672,5.);
#30=CYLINDRICAL_SURFACE('',#675,5.);
#31=FACE_OUTER_BOUND('',#65,.T.);
#32=FACE_OUTER_BOUND('',#66,.T.);
#33=FACE_OUTER_BOUND('',#67,.T.);
#34=FACE_OUTER_BOUND('',#68,.T.);
#35=FACE_OUTER_BOUND('',#69,.T.);
#36=FACE_OUTER_BOUND('',#70,.T.);
#37=FACE_OUTER_BOUND('',#71,.T.);
#38=FACE_OUTER_BOUND('',#72,.T.);
#39=FACE_OUTER_BOUND('',#73,.T.);
#40=FACE_OUTER_BOUND('',#74,.T.);
#41=FACE_OUTER_BOUND('',#75,.T.);
#42=FACE_OUTER_BOUND('',#76,.T.);
#43=FACE_OUTER_BOUND('',#77,.T.);
#44=FACE_OUTER_BOUND('',#78,.T.);
#45=FACE_OUTER_BOUND('',#79,.T.);
#46=FACE_OUTER_BOUND('',#80,.T.);
#47=FACE_OUTER_BOUND('',#81,.T.);
#48=FACE_OUTER_BOUND('',#82,.T.);
#49=FACE_OUTER_BOUND('',#83,.T.);
#50=FACE_OUTER_BOUND('',#84,.T.);
#51=FACE_OUTER_BOUND('',#85,.T.);
#52=FACE_OUTER_BOUND('',#86,.T.);
#53=FACE_OUTER_BOUND('',#87,.T.);
#54=FACE_OUTER_BOUND('',#90,.T.);
#55=FACE_OUTER_BOUND('',#91,.T.);
#56=FACE_OUTER_BOUND('',#92,.T.);
#57=FACE_OUTER_BOUND('',#93,.T.);
#58=FACE_OUTER_BOUND('',#94,.T.);
#59=FACE_OUTER_BOUND('',#95,.T.);
#60=FACE_OUTER_BOUND('',#96,.T.);
#61=FACE_OUTER_BOUND('',#97,.T.);
#62=FACE_OUTER_BOUND('',#98,.T.);
#63=FACE_OUTER_BOUND('',#100,.T.);
#64=FACE_OUTER_BOUND('',#101,.T.);
#65=EDGE_LOOP('',(#395,#396,#397,#398));
#66=EDGE_LOOP('',(#399,#400,#401,#402));
#67=EDGE_LOOP('',(#403,#404,#405,#406));
#68=EDGE_LOOP('',(#407,#408,#409,#410));
#69=EDGE_LOOP('',(#411,#412,#413,#414));
#70=EDGE_LOOP('',(#415,#416,#417,#418));
#71=EDGE_LOOP('',(#419,#420,#421,#422));
#72=EDGE_LOOP('',(#423,#424,#425,#426));
#73=EDGE_LOOP('',(#427,#428,#429,#430));
#74=EDGE_LOOP('',(#431,#432,#433,#434));
#75=EDGE_LOOP('',(#435,#436,#437,#438));
#76=EDGE_LOOP('',(#439,#440,#441,#442));
#77=EDGE_LOOP('',(#443,#444,#445,#446));
#78=EDGE_LOOP('',(#447,#448,#449,#450));
#79=EDGE_LOOP('',(#451,#452,#453,#454));
#80=EDGE_LOOP('',(#455,#456,#457,#458));
#81=EDGE_LOOP('',(#459,#460,#461,#462));
#82=EDGE_LOOP('',(#463,#464,#465,#466));
#83=EDGE_LOOP('',(#467,#468,#469,#470));
#84=EDGE_LOOP('',(#471,#472,#473,#474));
#85=EDGE_LOOP('',(#475,#476,#477,#478));
#86=EDGE_LOOP('',(#479,#480,#481,#482,#483,#484,#485,#486));
#87=EDGE_LOOP('',(#487,#488,#489,#490,#491,#492,#493,#494));
#88=EDGE_LOOP('',(#495,#496,#497,#498));
#89=EDGE_LOOP('',(#499,#500,#501,#502));
#90=EDGE_LOOP('',(#503,#504,#505,#506));
#91=EDGE_LOOP('',(#507,#508,#509,#510));
#92=EDGE_LOOP('',(#511,#512,#513,#514));
#93=EDGE_LOOP('',(#515,#516,#517,#518,#519,#520,#521,#522));
#94=EDGE_LOOP('',(#523,#524,#525,#526));
#95=EDGE_LOOP('',(#527,#528,#529,#530));
#96=EDGE_LOOP('',(#531,#532,#533,#534));
#97=EDGE_LOOP('',(#535,#536,#537,#538));
#98=EDGE_LOOP('',(#539,#540,#541,#542,#543,#544));
#99=EDGE_LOOP('',(#545,#546,#547,#548));
#100=EDGE_LOOP('',(#549,#550,#551,#552));
#101=EDGE_LOOP('',(#553,#554,#555,#556,#557,#558));
#102=EDGE_LOOP('',(#559,#560,#561,#562));
#103=LINE('',#849,#179);
#104=LINE('',#851,#180);
#105=LINE('',#853,#181);
#106=LINE('',#854,#182);
#107=LINE('',#857,#183);
#108=LINE('',#859,#184);
#109=LINE('',#860,#185);
#110=LINE('',#863,#186);
#111=LINE('',#865,#187);
#112=LINE('',#866,#188);
#113=LINE('',#868,#189);
#114=LINE('',#869,#190);
#115=LINE('',#874,#191);
#116=LINE('',#876,#192);
#117=LINE('',#878,#193);
#118=LINE('',#879,#194);
#119=LINE('',#882,#195);
#120=LINE('',#884,#196);
#121=LINE('',#885,#197);
#122=LINE('',#888,#198);
#123=LINE('',#890,#199);
#124=LINE('',#891,#200);
#125=LINE('',#893,#201);
#126=LINE('',#894,#202);
#127=LINE('',#899,#203);
#128=LINE('',#901,#204);
#129=LINE('',#903,#205);
#130=LINE('',#904,#206);
#131=LINE('',#907,#207);
#132=LINE('',#909,#208);
#133=LINE('',#910,#209);
#134=LINE('',#913,#210);
#135=LINE('',#915,#211);
#136=LINE('',#916,#212);
#137=LINE('',#918,#213);
#138=LINE('',#919,#214);
#139=LINE('',#924,#215);
#140=LINE('',#926,#216);
#141=LINE('',#928,#217);
#142=LINE('',#929,#218);
#143=LINE('',#932,#219);
#144=LINE('',#934,#220);
#145=LINE('',#935,#221);
#146=LINE('',#938,#222);
#147=LINE('',#940,#223);
#148=LINE('',#941,#224);
#149=LINE('',#943,#225);
#150=LINE('',#944,#226);
#151=LINE('',#951,#227);
#152=LINE('',#954,#228);
#153=LINE('',#957,#229);
#154=LINE('',#959,#230);
#155=LINE('',#961,#231);
#156=LINE('',#963,#232);
#157=LINE('',#965,#233);
#158=LINE('',#967,#234);
#159=LINE('',#968,#235);
#160=LINE('',#971,#236);
#161=LINE('',#975,#237);
#162=LINE('',#979,#238);
#163=LINE('',#983,#239);
#164=LINE('',#987,#240);
#165=LINE('',#988,#241);
#166=LINE('',#991,#242);
#167=LINE('',#994,#243);
#168=LINE('',#997,#244);
#169=LINE('',#999,#245);
#170=LINE('',#1001,#246);
#171=LINE('',#1003,#247);
#172=LINE('',#1005,#248);
#173=LINE('',#1006,#249);
#174=LINE('',#1010,#250);
#175=LINE('',#1011,#251);
#176=LINE('',#1013,#252);
#177=LINE('',#1015,#253);
#178=LINE('',#1018,#254);
#179=VECTOR('',#687,10.);
#180=VECTOR('',#688,10.);
#181=VECTOR('',#689,10.);
#182=VECTOR('',#690,10.);
#183=VECTOR('',#693,10.);
#184=VECTOR('',#694,10.);
#185=VECTOR('',#695,10.);
#186=VECTOR('',#698,10.);
#187=VECTOR('',#699,10.);
#188=VECTOR('',#700,10.);
#189=VECTOR('',#703,10.);
#190=VECTOR('',#704,10.);
#191=VECTOR('',#709,10.);
#192=VECTOR('',#710,10.);
#193=VECTOR('',#711,10.);
#194=VECTOR('',#712,10.);
#195=VECTOR('',#715,10.);
#196=VECTOR('',#716,10.);
#197=VECTOR('',#717,10.);
#198=VECTOR('',#720,10.);
#199=VECTOR('',#721,10.);
#200=VECTOR('',#722,10.);
#201=VECTOR('',#725,10.);
#202=VECTOR('',#726,10.);
#203=VECTOR('',#731,10.);
#204=VECTOR('',#732,10.);
#205=VECTOR('',#733,10.);
#206=VECTOR('',#734,10.);
#207=VECTOR('',#737,10.);
#208=VECTOR('',#738,10.);
#209=VECTOR('',#739,10.);
#210=VECTOR('',#742,10.);
#211=VECTOR('',#743,10.);
#212=VECTOR('',#744,10.);
#213=VECTOR('',#747,10.);
#214=VECTOR('',#748,10.);
#215=VECTOR('',#753,10.);
#216=VECTOR('',#754,10.);
#217=VECTOR('',#755,10.);
#218=VECTOR('',#756,10.);
#219=VECTOR('',#759,10.);
#220=VECTOR('',#760,10.);
#221=VECTOR('',#761,10.);
#222=VECTOR('',#764,10.);
#223=VECTOR('',#765,10.);
#224=VECTOR('',#766,10.);
#225=VECTOR('',#769,10.);
#226=VECTOR('',#770,10.);
#227=VECTOR('',#777,10.);
#228=VECTOR('',#780,10.);
#229=VECTOR('',#783,10.);
#230=VECTOR('',#784,10.);
#231=VECTOR('',#785,10.);
#232=VECTOR('',#786,10.);
#233=VECTOR('',#787,10.);
#234=VECTOR('',#788,10.);
#235=VECTOR('',#789,10.);
#236=VECTOR('',#792,10.);
#237=VECTOR('',#795,10.);
#238=VECTOR('',#798,10.);
#239=VECTOR('',#803,10.);
#240=VECTOR('',#808,10.);
#241=VECTOR('',#809,10.);
#242=VECTOR('',#812,10.);
#243=VECTOR('',#815,10.);
#244=VECTOR('',#818,10.);
#245=VECTOR('',#819,10.);
#246=VECTOR('',#820,10.);
#247=VECTOR('',#821,10.);
#248=VECTOR('',#822,10.);
#249=VECTOR('',#823,10.);
#250=VECTOR('',#830,10.);
#251=VECTOR('',#831,10.);
#252=VECTOR('',#834,10.);
#253=VECTOR('',#837,10.);
#254=VECTOR('',#842,10.);
#255=VERTEX_POINT('',#847);
#256=VERTEX_POINT('',#848);
#257=VERTEX_POINT('',#850);
#258=VERTEX_POINT('',#852);
#259=VERTEX_POINT('',#856);
#260=VERTEX_POINT('',#858);
#261=VERTEX_POINT('',#862);
#262=VERTEX_POINT('',#864);
#263=VERTEX_POINT('',#872);
#264=VERTEX_POINT('',#873);
#265=VERTEX_POINT('',#875);
#266=VERTEX_POINT('',#877);
#267=VERTEX_POINT('',#881);
#268=VERTEX_POINT('',#883);
#269=VERTEX_POINT('',#887);
#270=VERTEX_POINT('',#889);
#271=VERTEX_POINT('',#897);
#272=VERTEX_POINT('',#898);
#273=VERTEX_POINT('',#900);
#274=VERTEX_POINT('',#902);
#275=VERTEX_POINT('',#906);
#276=VERTEX_POINT('',#908);
#277=VERTEX_POINT('',#912);
#278=VERTEX_POINT('',#914);
#279=VERTEX_POINT('',#922);
#280=VERTEX_POINT('',#923);
#281=VERTEX_POINT('',#925);
#282=VERTEX_POINT('',#927);
#283=VERTEX_POINT('',#931);
#284=VERTEX_POINT('',#933);
#285=VERTEX_POINT('',#937);
#286=VERTEX_POINT('',#939);
#287=VERTEX_POINT('',#947);
#288=VERTEX_POINT('',#948);
#289=VERTEX_POINT('',#950);
#290=VERTEX_POINT('',#952);
#291=VERTEX_POINT('',#956);
#292=VERTEX_POINT('',#958);
#293=VERTEX_POINT('',#960);
#294=VERTEX_POINT('',#962);
#295=VERTEX_POINT('',#964);
#296=VERTEX_POINT('',#966);
#297=VERTEX_POINT('',#970);
#298=VERTEX_POINT('',#972);
#299=VERTEX_POINT('',#974);
#300=VERTEX_POINT('',#976);
#301=VERTEX_POINT('',#978);
#302=VERTEX_POINT('',#982);
#303=VERTEX_POINT('',#986);
#304=VERTEX_POINT('',#990);
#305=VERTEX_POINT('',#992);
#306=VERTEX_POINT('',#996);
#307=VERTEX_POINT('',#998);
#308=VERTEX_POINT('',#1000);
#309=VERTEX_POINT('',#1002);
#310=VERTEX_POINT('',#1004);
#311=EDGE_CURVE('',#255,#256,#103,.T.);
#312=EDGE_CURVE('',#257,#255,#104,.T.);
#313=EDGE_CURVE('',#257,#258,#105,.T.);
#314=EDGE_CURVE('',#258,#256,#106,.T.);
#315=EDGE_CURVE('',#256,#259,#107,.T.);
#316=EDGE_CURVE('',#258,#260,#108,.T.);
#317=EDGE_CURVE('',#260,#259,#109,.T.);
#318=EDGE_CURVE('',#259,#261,#110,.T.);
#319=EDGE_CURVE('',#260,#262,#111,.T.);
#320=EDGE_CURVE('',#262,#261,#112,.T.);
#321=EDGE_CURVE('',#261,#255,#113,.T.);
#322=EDGE_CURVE('',#262,#257,#114,.T.);
#323=EDGE_CURVE('',#263,#264,#115,.T.);
#324=EDGE_CURVE('',#265,#263,#116,.T.);
#325=EDGE_CURVE('',#265,#266,#117,.T.);
#326=EDGE_CURVE('',#266,#264,#118,.T.);
#327=EDGE_CURVE('',#264,#267,#119,.T.);
#328=EDGE_CURVE('',#266,#268,#120,.T.);
#329=EDGE_CURVE('',#268,#267,#121,.T.);
#330=EDGE_CURVE('',#267,#269,#122,.T.);
#331=EDGE_CURVE('',#268,#270,#123,.T.);
#332=EDGE_CURVE('',#270,#269,#124,.T.);
#333=EDGE_CURVE('',#269,#263,#125,.T.);
#334=EDGE_CURVE('',#270,#265,#126,.T.);
#335=EDGE_CURVE('',#271,#272,#127,.T.);
#336=EDGE_CURVE('',#271,#273,#128,.T.);
#337=EDGE_CURVE('',#274,#273,#129,.T.);
#338=EDGE_CURVE('',#272,#274,#130,.T.);
#339=EDGE_CURVE('',#272,#275,#131,.T.);
#340=EDGE_CURVE('',#276,#274,#132,.T.);
#341=EDGE_CURVE('',#275,#276,#133,.T.);
#342=EDGE_CURVE('',#275,#277,#134,.T.);
#343=EDGE_CURVE('',#278,#276,#135,.T.);
#344=EDGE_CURVE('',#277,#278,#136,.T.);
#345=EDGE_CURVE('',#277,#271,#137,.T.);
#346=EDGE_CURVE('',#273,#278,#138,.T.);
#347=EDGE_CURVE('',#279,#280,#139,.T.);
#348=EDGE_CURVE('',#279,#281,#140,.T.);
#349=EDGE_CURVE('',#282,#281,#141,.T.);
#350=EDGE_CURVE('',#280,#282,#142,.T.);
#351=EDGE_CURVE('',#280,#283,#143,.T.);
#352=EDGE_CURVE('',#284,#282,#144,.T.);
#353=EDGE_CURVE('',#283,#284,#145,.T.);
#354=EDGE_CURVE('',#283,#285,#146,.T.);
#355=EDGE_CURVE('',#286,#284,#147,.T.);
#356=EDGE_CURVE('',#285,#286,#148,.T.);
#357=EDGE_CURVE('',#285,#279,#149,.T.);
#358=EDGE_CURVE('',#281,#286,#150,.T.);
#359=EDGE_CURVE('',#287,#288,#19,.T.);
#360=EDGE_CURVE('',#288,#289,#151,.T.);
#361=EDGE_CURVE('',#289,#290,#20,.T.);
#362=EDGE_CURVE('',#290,#287,#152,.T.);
#363=EDGE_CURVE('',#291,#288,#153,.T.);
#364=EDGE_CURVE('',#292,#291,#154,.T.);
#365=EDGE_CURVE('',#292,#293,#155,.T.);
#366=EDGE_CURVE('',#293,#294,#156,.T.);
#367=EDGE_CURVE('',#295,#294,#157,.T.);
#368=EDGE_CURVE('',#296,#295,#158,.T.);
#369=EDGE_CURVE('',#289,#296,#159,.T.);
#370=EDGE_CURVE('',#287,#297,#160,.T.);
#371=EDGE_CURVE('',#298,#297,#21,.T.);
#372=EDGE_CURVE('',#298,#299,#161,.T.);
#373=EDGE_CURVE('',#300,#299,#22,.T.);
#374=EDGE_CURVE('',#300,#301,#162,.T.);
#375=EDGE_CURVE('',#291,#301,#23,.T.);
#376=EDGE_CURVE('',#301,#302,#163,.T.);
#377=EDGE_CURVE('',#302,#292,#24,.T.);
#378=EDGE_CURVE('',#303,#300,#164,.T.);
#379=EDGE_CURVE('',#303,#302,#165,.T.);
#380=EDGE_CURVE('',#297,#304,#166,.T.);
#381=EDGE_CURVE('',#304,#305,#25,.T.);
#382=EDGE_CURVE('',#305,#298,#167,.T.);
#383=EDGE_CURVE('',#306,#305,#168,.T.);
#384=EDGE_CURVE('',#306,#307,#169,.T.);
#385=EDGE_CURVE('',#308,#307,#170,.T.);
#386=EDGE_CURVE('',#309,#308,#171,.T.);
#387=EDGE_CURVE('',#309,#310,#172,.T.);
#388=EDGE_CURVE('',#299,#310,#173,.T.);
#389=EDGE_CURVE('',#310,#303,#26,.T.);
#390=EDGE_CURVE('',#294,#308,#174,.T.);
#391=EDGE_CURVE('',#307,#295,#175,.T.);
#392=EDGE_CURVE('',#304,#290,#176,.T.);
#393=EDGE_CURVE('',#296,#306,#177,.T.);
#394=EDGE_CURVE('',#293,#309,#178,.T.);
#395=ORIENTED_EDGE('',*,*,#311,.F.);
#396=ORIENTED_EDGE('',*,*,#312,.F.);
#397=ORIENTED_EDGE('',*,*,#313,.T.);
#398=ORIENTED_EDGE('',*,*,#314,.T.);
#399=ORIENTED_EDGE('',*,*,#315,.F.);
#400=ORIENTED_EDGE('',*,*,#314,.F.);
#401=ORIENTED_EDGE('',*,*,#316,.T.);
#402=ORIENTED_EDGE('',*,*,#317,.T.);
#403=ORIENTED_EDGE('',*,*,#318,.F.);
#404=ORIENTED_EDGE('',*,*,#317,.F.);
#405=ORIENTED_EDGE('',*,*,#319,.T.);
#406=ORIENTED_EDGE('',*,*,#320,.T.);
#407=ORIENTED_EDGE('',*,*,#321,.F.);
#408=ORIENTED_EDGE('',*,*,#320,.F.);
#409=ORIENTED_EDGE('',*,*,#322,.T.);
#410=ORIENTED_EDGE('',*,*,#312,.T.);
#411=ORIENTED_EDGE('',*,*,#316,.F.);
#412=ORIENTED_EDGE('',*,*,#313,.F.);
#413=ORIENTED_EDGE('',*,*,#322,.F.);
#414=ORIENTED_EDGE('',*,*,#319,.F.);
#415=ORIENTED_EDGE('',*,*,#323,.F.);
#416=ORIENTED_EDGE('',*,*,#324,.F.);
#417=ORIENTED_EDGE('',*,*,#325,.T.);
#418=ORIENTED_EDGE('',*,*,#326,.T.);
#419=ORIENTED_EDGE('',*,*,#327,.F.);
#420=ORIENTED_EDGE('',*,*,#326,.F.);
#421=ORIENTED_EDGE('',*,*,#328,.T.);
#422=ORIENTED_EDGE('',*,*,#329,.T.);
#423=ORIENTED_EDGE('',*,*,#330,.F.);
#424=ORIENTED_EDGE('',*,*,#329,.F.);
#425=ORIENTED_EDGE('',*,*,#331,.T.);
#426=ORIENTED_EDGE('',*,*,#332,.T.);
#427=ORIENTED_EDGE('',*,*,#333,.F.);
#428=ORIENTED_EDGE('',*,*,#332,.F.);
#429=ORIENTED_EDGE('',*,*,#334,.T.);
#430=ORIENTED_EDGE('',*,*,#324,.T.);
#431=ORIENTED_EDGE('',*,*,#328,.F.);
#432=ORIENTED_EDGE('',*,*,#325,.F.);
#433=ORIENTED_EDGE('',*,*,#334,.F.);
#434=ORIENTED_EDGE('',*,*,#331,.F.);
#435=ORIENTED_EDGE('',*,*,#335,.F.);
#436=ORIENTED_EDGE('',*,*,#336,.T.);
#437=ORIENTED_EDGE('',*,*,#337,.F.);
#438=ORIENTED_EDGE('',*,*,#338,.F.);
#439=ORIENTED_EDGE('',*,*,#339,.F.);
#440=ORIENTED_EDGE('',*,*,#338,.T.);
#441=ORIENTED_EDGE('',*,*,#340,.F.);
#442=ORIENTED_EDGE('',*,*,#341,.F.);
#443=ORIENTED_EDGE('',*,*,#342,.F.);
#444=ORIENTED_EDGE('',*,*,#341,.T.);
#445=ORIENTED_EDGE('',*,*,#343,.F.);
#446=ORIENTED_EDGE('',*,*,#344,.F.);
#447=ORIENTED_EDGE('',*,*,#345,.F.);
#448=ORIENTED_EDGE('',*,*,#344,.T.);
#449=ORIENTED_EDGE('',*,*,#346,.F.);
#450=ORIENTED_EDGE('',*,*,#336,.F.);
#451=ORIENTED_EDGE('',*,*,#346,.T.);
#452=ORIENTED_EDGE('',*,*,#343,.T.);
#453=ORIENTED_EDGE('',*,*,#340,.T.);
#454=ORIENTED_EDGE('',*,*,#337,.T.);
#455=ORIENTED_EDGE('',*,*,#347,.F.);
#456=ORIENTED_EDGE('',*,*,#348,.T.);
#457=ORIENTED_EDGE('',*,*,#349,.F.);
#458=ORIENTED_EDGE('',*,*,#350,.F.);
#459=ORIENTED_EDGE('',*,*,#351,.F.);
#460=ORIENTED_EDGE('',*,*,#350,.T.);
#461=ORIENTED_EDGE('',*,*,#352,.F.);
#462=ORIENTED_EDGE('',*,*,#353,.F.);
#463=ORIENTED_EDGE('',*,*,#354,.F.);
#464=ORIENTED_EDGE('',*,*,#353,.T.);
#465=ORIENTED_EDGE('',*,*,#355,.F.);
#466=ORIENTED_EDGE('',*,*,#356,.F.);
#467=ORIENTED_EDGE('',*,*,#357,.F.);
#468=ORIENTED_EDGE('',*,*,#356,.T.);
#469=ORIENTED_EDGE('',*,*,#358,.F.);
#470=ORIENTED_EDGE('',*,*,#348,.F.);
#471=ORIENTED_EDGE('',*,*,#358,.T.);
#472=ORIENTED_EDGE('',*,*,#355,.T.);
#473=ORIENTED_EDGE('',*,*,#352,.T.);
#474=ORIENTED_EDGE('',*,*,#349,.T.);
#475=ORIENTED_EDGE('',*,*,#359,.T.);
#476=ORIENTED_EDGE('',*,*,#360,.T.);
#477=ORIENTED_EDGE('',*,*,#361,.T.);
#478=ORIENTED_EDGE('',*,*,#362,.T.);
#479=ORIENTED_EDGE('',*,*,#360,.F.);
#480=ORIENTED_EDGE('',*,*,#363,.F.);
#481=ORIENTED_EDGE('',*,*,#364,.F.);
#482=ORIENTED_EDGE('',*,*,#365,.T.);
#483=ORIENTED_EDGE('',*,*,#366,.T.);
#484=ORIENTED_EDGE('',*,*,#367,.F.);
#485=ORIENTED_EDGE('',*,*,#368,.F.);
#486=ORIENTED_EDGE('',*,*,#369,.F.);
#487=ORIENTED_EDGE('',*,*,#359,.F.);
#488=ORIENTED_EDGE('',*,*,#370,.T.);
#489=ORIENTED_EDGE('',*,*,#371,.F.);
#490=ORIENTED_EDGE('',*,*,#372,.T.);
#491=ORIENTED_EDGE('',*,*,#373,.F.);
#492=ORIENTED_EDGE('',*,*,#374,.T.);
#493=ORIENTED_EDGE('',*,*,#375,.F.);
#494=ORIENTED_EDGE('',*,*,#363,.T.);
#495=ORIENTED_EDGE('',*,*,#318,.T.);
#496=ORIENTED_EDGE('',*,*,#321,.T.);
#497=ORIENTED_EDGE('',*,*,#311,.T.);
#498=ORIENTED_EDGE('',*,*,#315,.T.);
#499=ORIENTED_EDGE('',*,*,#330,.T.);
#500=ORIENTED_EDGE('',*,*,#333,.T.);
#501=ORIENTED_EDGE('',*,*,#323,.T.);
#502=ORIENTED_EDGE('',*,*,#327,.T.);
#503=ORIENTED_EDGE('',*,*,#375,.T.);
#504=ORIENTED_EDGE('',*,*,#376,.T.);
#505=ORIENTED_EDGE('',*,*,#377,.T.);
#506=ORIENTED_EDGE('',*,*,#364,.T.);
#507=ORIENTED_EDGE('',*,*,#376,.F.);
#508=ORIENTED_EDGE('',*,*,#374,.F.);
#509=ORIENTED_EDGE('',*,*,#378,.F.);
#510=ORIENTED_EDGE('',*,*,#379,.T.);
#511=ORIENTED_EDGE('',*,*,#371,.T.);
#512=ORIENTED_EDGE('',*,*,#380,.T.);
#513=ORIENTED_EDGE('',*,*,#381,.T.);
#514=ORIENTED_EDGE('',*,*,#382,.T.);
#515=ORIENTED_EDGE('',*,*,#382,.F.);
#516=ORIENTED_EDGE('',*,*,#383,.F.);
#517=ORIENTED_EDGE('',*,*,#384,.T.);
#518=ORIENTED_EDGE('',*,*,#385,.F.);
#519=ORIENTED_EDGE('',*,*,#386,.F.);
#520=ORIENTED_EDGE('',*,*,#387,.T.);
#521=ORIENTED_EDGE('',*,*,#388,.F.);
#522=ORIENTED_EDGE('',*,*,#372,.F.);
#523=ORIENTED_EDGE('',*,*,#373,.T.);
#524=ORIENTED_EDGE('',*,*,#388,.T.);
#525=ORIENTED_EDGE('',*,*,#389,.T.);
#526=ORIENTED_EDGE('',*,*,#378,.T.);
#527=ORIENTED_EDGE('',*,*,#390,.T.);
#528=ORIENTED_EDGE('',*,*,#385,.T.);
#529=ORIENTED_EDGE('',*,*,#391,.T.);
#530=ORIENTED_EDGE('',*,*,#367,.T.);
#531=ORIENTED_EDGE('',*,*,#362,.F.);
#532=ORIENTED_EDGE('',*,*,#392,.F.);
#533=ORIENTED_EDGE('',*,*,#380,.F.);
#534=ORIENTED_EDGE('',*,*,#370,.F.);
#535=ORIENTED_EDGE('',*,*,#393,.F.);
#536=ORIENTED_EDGE('',*,*,#368,.T.);
#537=ORIENTED_EDGE('',*,*,#391,.F.);
#538=ORIENTED_EDGE('',*,*,#384,.F.);
#539=ORIENTED_EDGE('',*,*,#361,.F.);
#540=ORIENTED_EDGE('',*,*,#369,.T.);
#541=ORIENTED_EDGE('',*,*,#393,.T.);
#542=ORIENTED_EDGE('',*,*,#383,.T.);
#543=ORIENTED_EDGE('',*,*,#381,.F.);
#544=ORIENTED_EDGE('',*,*,#392,.T.);
#545=ORIENTED_EDGE('',*,*,#335,.T.);
#546=ORIENTED_EDGE('',*,*,#339,.T.);
#547=ORIENTED_EDGE('',*,*,#342,.T.);
#548=ORIENTED_EDGE('',*,*,#345,.T.);
#549=ORIENTED_EDGE('',*,*,#394,.T.);
#550=ORIENTED_EDGE('',*,*,#386,.T.);
#551=ORIENTED_EDGE('',*,*,#390,.F.);
#552=ORIENTED_EDGE('',*,*,#366,.F.);
#553=ORIENTED_EDGE('',*,*,#377,.F.);
#554=ORIENTED_EDGE('',*,*,#379,.F.);
#555=ORIENTED_EDGE('',*,*,#389,.F.);
#556=ORIENTED_EDGE('',*,*,#387,.F.);
#557=ORIENTED_EDGE('',*,*,#394,.F.);
#558=ORIENTED_EDGE('',*,*,#365,.F.);
#559=ORIENTED_EDGE('',*,*,#347,.T.);
#560=ORIENTED_EDGE('',*,*,#351,.T.);
#561=ORIENTED_EDGE('',*,*,#354,.T.);
#562=ORIENTED_EDGE('',*,*,#357,.T.);
#563=PLANE('',#641);
#564=PLANE('',#642);
#565=PLANE('',#643);
#566=PLANE('',#644);
#567=PLANE('',#645);
#568=PLANE('',#646);
#569=PLANE('',#647);
#570=PLANE('',#648);
#571=PLANE('',#649);
#572=PLANE('',#650);
#573=PLANE('',#651);
#574=PLANE('',#652);
#575=PLANE('',#653);
#576=PLANE('',#654);
#577=PLANE('',#655);
#578=PLANE('',#656);
#579=PLANE('',#657);
#580=PLANE('',#658);
#581=PLANE('',#659);
#582=PLANE('',#660);
#583=PLANE('',#664);
#584=PLANE('',#665);
#585=PLANE('',#671);
#586=PLANE('',#674);
#587=PLANE('',#677);
#588=PLANE('',#678);
#589=PLANE('',#679);
#590=PLANE('',#680);
#591=PLANE('',#681);
#592=PLANE('',#682);
#593=ADVANCED_FACE('',(#31),#563,.F.);
#594=ADVANCED_FACE('',(#32),#564,.F.);
#595=ADVANCED_FACE('',(#33),#565,.F.);
#596=ADVANCED_FACE('',(#34),#566,.F.);
#597=ADVANCED_FACE('',(#35),#567,.F.);
#598=ADVANCED_FACE('',(#36),#568,.F.);
#599=ADVANCED_FACE('',(#37),#569,.F.);
#600=ADVANCED_FACE('',(#38),#570,.F.);
#601=ADVANCED_FACE('',(#39),#571,.F.);
#602=ADVANCED_FACE('',(#40),#572,.F.);
#603=ADVANCED_FACE('',(#41),#573,.T.);
#604=ADVANCED_FACE('',(#42),#574,.T.);
#605=ADVANCED_FACE('',(#43),#575,.T.);
#606=ADVANCED_FACE('',(#44),#576,.T.);
#607=ADVANCED_FACE('',(#45),#577,.T.);
#608=ADVANCED_FACE('',(#46),#578,.T.);
#609=ADVANCED_FACE('',(#47),#579,.T.);
#610=ADVANCED_FACE('',(#48),#580,.T.);
#611=ADVANCED_FACE('',(#49),#581,.T.);
#612=ADVANCED_FACE('',(#50),#582,.T.);
#613=ADVANCED_FACE('',(#51),#27,.T.);
#614=ADVANCED_FACE('',(#52),#583,.T.);
#615=ADVANCED_FACE('',(#53,#15,#16),#584,.T.);
#616=ADVANCED_FACE('',(#54),#28,.T.);
#617=ADVANCED_FACE('',(#55),#585,.T.);
#618=ADVANCED_FACE('',(#56),#29,.T.);
#619=ADVANCED_FACE('',(#57),#586,.T.);
#620=ADVANCED_FACE('',(#58),#30,.T.);
#621=ADVANCED_FACE('',(#59),#587,.F.);
#622=ADVANCED_FACE('',(#60),#588,.T.);
#623=ADVANCED_FACE('',(#61),#589,.T.);
#624=ADVANCED_FACE('',(#62,#17),#590,.F.);
#625=ADVANCED_FACE('',(#63),#591,.T.);
#626=ADVANCED_FACE('',(#64,#18),#592,.F.);
#627=CLOSED_SHELL('',(#593,#594,#595,#596,#597,#598,#599,#600,#601,#602,
#603,#604,#605,#606,#607,#608,#609,#610,#611,#612,#613,#614,#615,#616,#617,
#618,#619,#620,#621,#622,#623,#624,#625,#626));
#628=DERIVED_UNIT_ELEMENT(#630,1.);
#629=DERIVED_UNIT_ELEMENT(#1025,-3.);
#630=(
MASS_UNIT()
NAMED_UNIT(*)
SI_UNIT(.KILO.,.GRAM.)
);
#631=DERIVED_UNIT((#628,#629));
#632=MEASURE_REPRESENTATION_ITEM('density measure',
POSITIVE_RATIO_MEASURE(7850.),#631);
#633=PROPERTY_DEFINITION_REPRESENTATION(#638,#635);
#634=PROPERTY_DEFINITION_REPRESENTATION(#639,#636);
#635=REPRESENTATION('material name',(#637),#1022);
#636=REPRESENTATION('density',(#632),#1022);
#637=DESCRIPTIVE_REPRESENTATION_ITEM('Steel','Steel');
#638=PROPERTY_DEFINITION('material property','material name',#1032);
#639=PROPERTY_DEFINITION('material property','density of part',#1032);
#640=AXIS2_PLACEMENT_3D('',#845,#683,#684);
#641=AXIS2_PLACEMENT_3D('',#846,#685,#686);
#642=AXIS2_PLACEMENT_3D('',#855,#691,#692);
#643=AXIS2_PLACEMENT_3D('',#861,#696,#697);
#644=AXIS2_PLACEMENT_3D('',#867,#701,#702);
#645=AXIS2_PLACEMENT_3D('',#870,#705,#706);
#646=AXIS2_PLACEMENT_3D('',#871,#707,#708);
#647=AXIS2_PLACEMENT_3D('',#880,#713,#714);
#648=AXIS2_PLACEMENT_3D('',#886,#718,#719);
#649=AXIS2_PLACEMENT_3D('',#892,#723,#724);
#650=AXIS2_PLACEMENT_3D('',#895,#727,#728);
#651=AXIS2_PLACEMENT_3D('',#896,#729,#730);
#652=AXIS2_PLACEMENT_3D('',#905,#735,#736);
#653=AXIS2_PLACEMENT_3D('',#911,#740,#741);
#654=AXIS2_PLACEMENT_3D('',#917,#745,#746);
#655=AXIS2_PLACEMENT_3D('',#920,#749,#750);
#656=AXIS2_PLACEMENT_3D('',#921,#751,#752);
#657=AXIS2_PLACEMENT_3D('',#930,#757,#758);
#658=AXIS2_PLACEMENT_3D('',#936,#762,#763);
#659=AXIS2_PLACEMENT_3D('',#942,#767,#768);
#660=AXIS2_PLACEMENT_3D('',#945,#771,#772);
#661=AXIS2_PLACEMENT_3D('',#946,#773,#774);
#662=AXIS2_PLACEMENT_3D('',#949,#775,#776);
#663=AXIS2_PLACEMENT_3D('',#953,#778,#779);
#664=AXIS2_PLACEMENT_3D('',#955,#781,#782);
#665=AXIS2_PLACEMENT_3D('',#969,#790,#791);
#666=AXIS2_PLACEMENT_3D('',#973,#793,#794);
#667=AXIS2_PLACEMENT_3D('',#977,#796,#797);
#668=AXIS2_PLACEMENT_3D('',#980,#799,#800);
#669=AXIS2_PLACEMENT_3D('',#981,#801,#802);
#670=AXIS2_PLACEMENT_3D('',#984,#804,#805);
#671=AXIS2_PLACEMENT_3D('',#985,#806,#807);
#672=AXIS2_PLACEMENT_3D('',#989,#810,#811);
#673=AXIS2_PLACEMENT_3D('',#993,#813,#814);
#674=AXIS2_PLACEMENT_3D('',#995,#816,#817);
#675=AXIS2_PLACEMENT_3D('',#1007,#824,#825);
#676=AXIS2_PLACEMENT_3D('',#1008,#826,#827);
#677=AXIS2_PLACEMENT_3D('',#1009,#828,#829);
#678=AXIS2_PLACEMENT_3D('',#1012,#832,#833);
#679=AXIS2_PLACEMENT_3D('',#1014,#835,#836);
#680=AXIS2_PLACEMENT_3D('',#1016,#838,#839);
#681=AXIS2_PLACEMENT_3D('',#1017,#840,#841);
#682=AXIS2_PLACEMENT_3D('',#1019,#843,#844);
#683=DIRECTION('axis',(0.,0.,1.));
#684=DIRECTION('refdir',(1.,0.,0.));
#685=DIRECTION('center_axis',(0.,1.,0.));
#686=DIRECTION('ref_axis',(-1.,0.,0.));
#687=DIRECTION('',(1.,0.,0.));
#688=DIRECTION('',(0.,0.,1.));
#689=DIRECTION('',(1.,0.,0.));
#690=DIRECTION('',(0.,0.,1.));
#691=DIRECTION('center_axis',(1.,0.,0.));
#692=DIRECTION('ref_axis',(0.,1.,0.));
#693=DIRECTION('',(0.,-1.,0.));
#694=DIRECTION('',(0.,-1.,0.));
#695=DIRECTION('',(0.,0.,1.));
#696=DIRECTION('center_axis',(0.,-1.,0.));
#697=DIRECTION('ref_axis',(1.,0.,0.));
#698=DIRECTION('',(-1.,0.,0.));
#699=DIRECTION('',(-1.,0.,0.));
#700=DIRECTION('',(0.,0.,1.));
#701=DIRECTION('center_axis',(-1.,0.,0.));
#702=DIRECTION('ref_axis',(0.,-1.,0.));
#703=DIRECTION('',(0.,1.,0.));
#704=DIRECTION('',(0.,1.,0.));
#705=DIRECTION('center_axis',(0.,0.,-1.));
#706=DIRECTION('ref_axis',(-1.,0.,0.));
#707=DIRECTION('center_axis',(-1.,0.,0.));
#708=DIRECTION('ref_axis',(0.,-1.,0.));
#709=DIRECTION('',(0.,1.,0.));
#710=DIRECTION('',(0.,0.,1.));
#711=DIRECTION('',(0.,1.,0.));
#712=DIRECTION('',(0.,0.,1.));
#713=DIRECTION('center_axis',(0.,1.,0.));
#714=DIRECTION('ref_axis',(-1.,0.,0.));
#715=DIRECTION('',(1.,0.,0.));
#716=DIRECTION('',(1.,0.,0.));
#717=DIRECTION('',(0.,0.,1.));
#718=DIRECTION('center_axis',(1.,0.,0.));
#719=DIRECTION('ref_axis',(0.,1.,0.));
#720=DIRECTION('',(0.,-1.,0.));
#721=DIRECTION('',(0.,-1.,0.));
#722=DIRECTION('',(0.,0.,1.));
#723=DIRECTION('center_axis',(0.,-1.,0.));
#724=DIRECTION('ref_axis',(1.,0.,0.));
#725=DIRECTION('',(-1.,0.,0.));
#726=DIRECTION('',(-1.,0.,0.));
#727=DIRECTION('center_axis',(0.,0.,-1.));
#728=DIRECTION('ref_axis',(-1.,0.,0.));
#729=DIRECTION('center_axis',(7.41450700576339E-16,1.,0.));
#730=DIRECTION('ref_axis',(1.,-7.41450700576339E-16,0.));
#731=DIRECTION('',(-1.,7.41450700576339E-16,0.));
#732=DIRECTION('',(0.,0.,-1.));
#733=DIRECTION('',(1.,-7.41450700576339E-16,0.));
#734=DIRECTION('',(0.,0.,-1.));
#735=DIRECTION('center_axis',(-1.,0.,0.));
#736=DIRECTION('ref_axis',(0.,1.,0.));
#737=DIRECTION('',(0.,-1.,0.));
#738=DIRECTION('',(0.,1.,0.));
#739=DIRECTION('',(0.,0.,-1.));
#740=DIRECTION('center_axis',(0.,-1.,0.));
#741=DIRECTION('ref_axis',(-1.,0.,0.));
#742=DIRECTION('',(1.,0.,0.));
#743=DIRECTION('',(-1.,0.,0.));
#744=DIRECTION('',(0.,0.,-1.));
#745=DIRECTION('center_axis',(1.,1.27316359529159E-16,0.));
#746=DIRECTION('ref_axis',(1.27316359529159E-16,-1.,0.));
#747=DIRECTION('',(-1.27316359529159E-16,1.,0.));
#748=DIRECTION('',(1.27316359529159E-16,-1.,0.));
#749=DIRECTION('center_axis',(0.,0.,-1.));
#750=DIRECTION('ref_axis',(-1.,0.,0.));
#751=DIRECTION('center_axis',(7.41450700576339E-16,1.,0.));
#752=DIRECTION('ref_axis',(1.,-7.41450700576339E-16,0.));
#753=DIRECTION('',(-1.,7.41450700576339E-16,0.));
#754=DIRECTION('',(0.,0.,-1.));
#755=DIRECTION('',(1.,-7.41450700576339E-16,0.));
#756=DIRECTION('',(0.,0.,-1.));
#757=DIRECTION('center_axis',(-1.,0.,0.));
#758=DIRECTION('ref_axis',(0.,1.,0.));
#759=DIRECTION('',(0.,-1.,0.));
#760=DIRECTION('',(0.,1.,0.));
#761=DIRECTION('',(0.,0.,-1.));
#762=DIRECTION('center_axis',(0.,-1.,0.));
#763=DIRECTION('ref_axis',(-1.,0.,0.));
#764=DIRECTION('',(1.,0.,0.));
#765=DIRECTION('',(-1.,0.,0.));
#766=DIRECTION('',(0.,0.,-1.));
#767=DIRECTION('center_axis',(1.,1.27316359529159E-16,0.));
#768=DIRECTION('ref_axis',(1.27316359529159E-16,-1.,0.));
#769=DIRECTION('',(-1.27316359529159E-16,1.,0.));
#770=DIRECTION('',(1.27316359529159E-16,-1.,0.));
#771=DIRECTION('center_axis',(0.,0.,-1.));
#772=DIRECTION('ref_axis',(-1.,0.,0.));
#773=DIRECTION('center_axis',(0.,0.,1.));
#774=DIRECTION('ref_axis',(-0.707106781186547,0.707106781186547,0.));
#775=DIRECTION('center_axis',(0.,0.,-1.));
#776=DIRECTION('ref_axis',(-0.707106781186547,0.707106781186547,0.));
#777=DIRECTION('',(0.,0.,-1.));
#778=DIRECTION('center_axis',(0.,0.,1.));
#779=DIRECTION('ref_axis',(-0.707106781186547,0.707106781186547,0.));
#780=DIRECTION('',(0.,0.,1.));
#781=DIRECTION('center_axis',(0.,1.,0.));
#782=DIRECTION('ref_axis',(-1.,0.,0.));
#783=DIRECTION('',(-1.,0.,0.));
#784=DIRECTION('',(0.,0.,1.));
#785=DIRECTION('',(-1.,0.,0.));
#786=DIRECTION('',(0.,0.,1.));
#787=DIRECTION('',(1.,0.,0.));
#788=DIRECTION('',(0.,0.,1.));
#789=DIRECTION('',(1.,0.,0.));
#790=DIRECTION('center_axis',(0.,0.,1.));
#791=DIRECTION('ref_axis',(1.,0.,0.));
#792=DIRECTION('',(0.,-1.,0.));
#793=DIRECTION('center_axis',(0.,0.,-1.));
#794=DIRECTION('ref_axis',(-0.707106781186547,-0.707106781186547,0.));
#795=DIRECTION('',(1.,0.,0.));
#796=DIRECTION('center_axis',(0.,0.,-1.));
#797=DIRECTION('ref_axis',(0.707106781186547,-0.707106781186547,0.));
#798=DIRECTION('',(0.,1.,0.));
#799=DIRECTION('center_axis',(0.,0.,-1.));
#800=DIRECTION('ref_axis',(0.707106781186547,0.707106781186547,0.));
#801=DIRECTION('center_axis',(0.,0.,1.));
#802=DIRECTION('ref_axis',(0.707106781186547,0.707106781186547,0.));
#803=DIRECTION('',(0.,0.,-1.));
#804=DIRECTION('center_axis',(0.,0.,1.));
#805=DIRECTION('ref_axis',(0.707106781186547,0.707106781186547,0.));
#806=DIRECTION('center_axis',(1.,0.,0.));
#807=DIRECTION('ref_axis',(0.,1.,0.));
#808=DIRECTION('',(0.,0.,1.));
#809=DIRECTION('',(0.,1.,0.));
#810=DIRECTION('center_axis',(0.,0.,1.));
#811=DIRECTION('ref_axis',(-0.707106781186547,-0.707106781186547,0.));
#812=DIRECTION('',(0.,0.,-1.));
#813=DIRECTION('center_axis',(0.,0.,1.));
#814=DIRECTION('ref_axis',(-0.707106781186547,-0.707106781186547,0.));
#815=DIRECTION('',(0.,0.,1.));
#816=DIRECTION('center_axis',(0.,-1.,0.));
#817=DIRECTION('ref_axis',(1.,0.,0.));
#818=DIRECTION('',(-1.,0.,0.));
#819=DIRECTION('',(0.,0.,1.));
#820=DIRECTION('',(-1.,0.,0.));
#821=DIRECTION('',(0.,0.,1.));
#822=DIRECTION('',(1.,0.,0.));
#823=DIRECTION('',(0.,0.,-1.));
#824=DIRECTION('center_axis',(0.,0.,1.));
#825=DIRECTION('ref_axis',(0.707106781186547,-0.707106781186547,0.));
#826=DIRECTION('center_axis',(0.,0.,1.));
#827=DIRECTION('ref_axis',(0.707106781186547,-0.707106781186547,0.));
#828=DIRECTION('center_axis',(0.,0.,1.));
#829=DIRECTION('ref_axis',(-1.,0.,0.));
#830=DIRECTION('',(0.,-1.,0.));
#831=DIRECTION('',(0.,1.,0.));
#832=DIRECTION('center_axis',(-1.,0.,0.));
#833=DIRECTION('ref_axis',(0.,-1.,0.));
#834=DIRECTION('',(0.,1.,0.));
#835=DIRECTION('center_axis',(1.,0.,0.));
#836=DIRECTION('ref_axis',(0.,1.,0.));
#837=DIRECTION('',(0.,-1.,0.));
#838=DIRECTION('center_axis',(0.,0.,1.));
#839=DIRECTION('ref_axis',(-1.,0.,0.));
#840=DIRECTION('center_axis',(-1.,0.,0.));
#841=DIRECTION('ref_axis',(0.,-1.,0.));
#842=DIRECTION('',(0.,-1.,0.));
#843=DIRECTION('center_axis',(0.,0.,1.));
#844=DIRECTION('ref_axis',(-1.,0.,0.));
#845=CARTESIAN_POINT('',(0.,0.,0.));
#846=CARTESIAN_POINT('Origin',(77.9999988377094,75.9999988973141,65.));
#847=CARTESIAN_POINT('',(66.9999988377094,75.9999988973141,80.));
#848=CARTESIAN_POINT('',(77.9999988377094,75.9999988973141,80.));
#849=CARTESIAN_POINT('',(38.9999994188547,75.9999988973141,80.));
#850=CARTESIAN_POINT('',(66.9999988377094,75.9999988973141,65.));
#851=CARTESIAN_POINT('',(66.9999988377094,75.9999988973141,65.));
#852=CARTESIAN_POINT('',(77.9999988377094,75.9999988973141,65.));
#853=CARTESIAN_POINT('',(77.9999988377094,75.9999988973141,65.));
#854=CARTESIAN_POINT('',(77.9999988377094,75.9999988973141,65.));
#855=CARTESIAN_POINT('Origin',(77.9999988377094,-74.0000011026859,65.));
#856=CARTESIAN_POINT('',(77.9999988377094,-74.0000011026859,80.));
#857=CARTESIAN_POINT('',(77.9999988377094,-37.000000551343,80.));
#858=CARTESIAN_POINT('',(77.9999988377094,-74.0000011026859,65.));
#859=CARTESIAN_POINT('',(77.9999988377094,-74.0000011026859,65.));
#860=CARTESIAN_POINT('',(77.9999988377094,-74.0000011026859,65.));
#861=CARTESIAN_POINT('Origin',(66.9999988377094,-74.0000011026859,65.));
#862=CARTESIAN_POINT('',(66.9999988377094,-74.0000011026859,80.));
#863=CARTESIAN_POINT('',(33.4999994188547,-74.0000011026859,80.));
#864=CARTESIAN_POINT('',(66.9999988377094,-74.0000011026859,65.));
#865=CARTESIAN_POINT('',(66.9999988377094,-74.0000011026859,65.));
#866=CARTESIAN_POINT('',(66.9999988377094,-74.0000011026859,65.));
#867=CARTESIAN_POINT('Origin',(66.9999988377094,75.9999988973141,65.));
#868=CARTESIAN_POINT('',(66.9999988377094,37.999999448657,80.));
#869=CARTESIAN_POINT('',(66.9999988377094,75.9999988973141,65.));
#870=CARTESIAN_POINT('Origin',(72.4999988377094,0.999998897314072,65.));
#871=CARTESIAN_POINT('Origin',(-78.0000011622906,75.9999988973141,65.));
#872=CARTESIAN_POINT('',(-78.0000011622906,-74.0000011026859,80.));
#873=CARTESIAN_POINT('',(-78.0000011622906,75.9999988973141,80.));
#874=CARTESIAN_POINT('',(-78.0000011622906,37.999999448657,80.));
#875=CARTESIAN_POINT('',(-78.0000011622906,-74.0000011026859,65.));
#876=CARTESIAN_POINT('',(-78.0000011622906,-74.0000011026859,65.));
#877=CARTESIAN_POINT('',(-78.0000011622906,75.9999988973141,65.));
#878=CARTESIAN_POINT('',(-78.0000011622906,75.9999988973141,65.));
#879=CARTESIAN_POINT('',(-78.0000011622906,75.9999988973141,65.));
#880=CARTESIAN_POINT('Origin',(-67.0000011622906,75.9999988973141,65.));
#881=CARTESIAN_POINT('',(-67.0000011622906,75.9999988973141,80.));
#882=CARTESIAN_POINT('',(-33.5000005811453,75.9999988973141,80.));
#883=CARTESIAN_POINT('',(-67.0000011622906,75.9999988973141,65.));
#884=CARTESIAN_POINT('',(-67.0000011622906,75.9999988973141,65.));
#885=CARTESIAN_POINT('',(-67.0000011622906,75.9999988973141,65.));
#886=CARTESIAN_POINT('Origin',(-67.0000011622906,-74.0000011026859,65.));
#887=CARTESIAN_POINT('',(-67.0000011622906,-74.0000011026859,80.));
#888=CARTESIAN_POINT('',(-67.0000011622906,-37.000000551343,80.));
#889=CARTESIAN_POINT('',(-67.0000011622906,-74.0000011026859,65.));
#890=CARTESIAN_POINT('',(-67.0000011622906,-74.0000011026859,65.));
#891=CARTESIAN_POINT('',(-67.0000011622906,-74.0000011026859,65.));
#892=CARTESIAN_POINT('Origin',(-78.0000011622906,-74.0000011026859,65.));
#893=CARTESIAN_POINT('',(-39.0000005811453,-74.0000011026859,80.));
#894=CARTESIAN_POINT('',(-78.0000011622906,-74.0000011026859,65.));
#895=CARTESIAN_POINT('Origin',(-72.5000011622906,0.999998897314072,65.));
#896=CARTESIAN_POINT('Origin',(-78.4800298773497,69.4316267537195,20.));
#897=CARTESIAN_POINT('',(-66.5011023638989,69.4316267537195,20.));
#898=CARTESIAN_POINT('',(-78.4800298773497,69.4316267537195,20.));
#899=CARTESIAN_POINT('',(-75.4900149386748,69.4316267537195,20.));
#900=CARTESIAN_POINT('',(-66.5011023638989,69.4316267537195,10.));
#901=CARTESIAN_POINT('',(-66.5011023638989,69.4316267537195,20.));
#902=CARTESIAN_POINT('',(-78.4800298773497,69.4316267537195,10.));
#903=CARTESIAN_POINT('',(-66.5011023638989,69.4316267537195,10.));
#904=CARTESIAN_POINT('',(-78.4800298773497,69.4316267537195,20.));
#905=CARTESIAN_POINT('Origin',(-78.4800298773497,-70.0914357945319,20.));
#906=CARTESIAN_POINT('',(-78.4800298773497,-70.0914357945319,20.));
#907=CARTESIAN_POINT('',(-78.4800298773497,-35.0457178972659,20.));
#908=CARTESIAN_POINT('',(-78.4800298773497,-70.0914357945319,10.));
#909=CARTESIAN_POINT('',(-78.4800298773497,69.4316267537195,10.));
#910=CARTESIAN_POINT('',(-78.4800298773497,-70.0914357945319,20.));
#911=CARTESIAN_POINT('Origin',(-66.5011023638989,-70.0914357945319,20.));
#912=CARTESIAN_POINT('',(-66.5011023638989,-70.0914357945319,20.));
#913=CARTESIAN_POINT('',(-69.5005511819494,-70.0914357945319,20.));
#914=CARTESIAN_POINT('',(-66.5011023638989,-70.0914357945319,10.));
#915=CARTESIAN_POINT('',(-78.4800298773497,-70.0914357945319,10.));
#916=CARTESIAN_POINT('',(-66.5011023638989,-70.0914357945319,20.));
#917=CARTESIAN_POINT('Origin',(-66.5011023638989,69.4316267537195,20.));
#918=CARTESIAN_POINT('',(-66.5011023638989,34.7158133768598,20.));
#919=CARTESIAN_POINT('',(-66.5011023638989,-70.0914357945319,10.));
#920=CARTESIAN_POINT('Origin',(-72.4905661206243,-0.329904520406172,10.));
#921=CARTESIAN_POINT('Origin',(66.5199701226503,69.4316267537195,20.));
#922=CARTESIAN_POINT('',(78.4988976361011,69.4316267537195,20.));
#923=CARTESIAN_POINT('',(66.5199701226503,69.4316267537195,20.));
#924=CARTESIAN_POINT('',(69.5099850613252,69.4316267537195,20.));
#925=CARTESIAN_POINT('',(78.4988976361011,69.4316267537195,10.));
#926=CARTESIAN_POINT('',(78.4988976361011,69.4316267537195,20.));
#927=CARTESIAN_POINT('',(66.5199701226503,69.4316267537195,10.));
#928=CARTESIAN_POINT('',(78.4988976361011,69.4316267537195,10.));
#929=CARTESIAN_POINT('',(66.5199701226503,69.4316267537195,20.));
#930=CARTESIAN_POINT('Origin',(66.5199701226503,-70.0914357945319,20.));
#931=CARTESIAN_POINT('',(66.5199701226503,-70.0914357945319,20.));
#932=CARTESIAN_POINT('',(66.5199701226503,-35.0457178972659,20.));
#933=CARTESIAN_POINT('',(66.5199701226503,-70.0914357945319,10.));
#934=CARTESIAN_POINT('',(66.5199701226503,69.4316267537195,10.));
#935=CARTESIAN_POINT('',(66.5199701226503,-70.0914357945319,20.));
#936=CARTESIAN_POINT('Origin',(78.4988976361011,-70.0914357945319,20.));
#937=CARTESIAN_POINT('',(78.4988976361011,-70.0914357945319,20.));
#938=CARTESIAN_POINT('',(75.4994488180505,-70.0914357945319,20.));
#939=CARTESIAN_POINT('',(78.4988976361011,-70.0914357945319,10.));
#940=CARTESIAN_POINT('',(66.5199701226503,-70.0914357945319,10.));
#941=CARTESIAN_POINT('',(78.4988976361011,-70.0914357945319,20.));
#942=CARTESIAN_POINT('Origin',(78.4988976361011,69.4316267537195,20.));
#943=CARTESIAN_POINT('',(78.4988976361011,34.7158133768598,20.));
#944=CARTESIAN_POINT('',(78.4988976361011,-70.0914357945319,10.));
#945=CARTESIAN_POINT('Origin',(72.5094338793757,-0.329904520406172,10.));
#946=CARTESIAN_POINT('Origin',(-75.,75.,20.));
#947=CARTESIAN_POINT('',(-80.,75.,80.));
#948=CARTESIAN_POINT('',(-75.,80.,80.));
#949=CARTESIAN_POINT('Origin',(-75.,75.,80.));
#950=CARTESIAN_POINT('',(-75.,80.,20.));
#951=CARTESIAN_POINT('',(-75.,80.,20.));
#952=CARTESIAN_POINT('',(-80.,75.,20.));
#953=CARTESIAN_POINT('Origin',(-75.,75.,20.));
#954=CARTESIAN_POINT('',(-80.,75.,20.));
#955=CARTESIAN_POINT('Origin',(80.,80.,20.));
#956=CARTESIAN_POINT('',(75.,80.,80.));
#957=CARTESIAN_POINT('',(-80.,80.,80.));
#958=CARTESIAN_POINT('',(75.,80.,20.));
#959=CARTESIAN_POINT('',(75.,80.,20.));
#960=CARTESIAN_POINT('',(65.,80.,20.));
#961=CARTESIAN_POINT('',(80.,80.,20.));
#962=CARTESIAN_POINT('',(65.,80.,70.));
#963=CARTESIAN_POINT('',(65.,80.,20.));
#964=CARTESIAN_POINT('',(-65.,80.,70.));
#965=CARTESIAN_POINT('',(-80.,80.,70.));
#966=CARTESIAN_POINT('',(-65.,80.,20.));
#967=CARTESIAN_POINT('',(-65.,80.,20.));
#968=CARTESIAN_POINT('',(-80.,80.,20.));
#969=CARTESIAN_POINT('Origin',(8.88178419700125E-15,0.,80.));
#970=CARTESIAN_POINT('',(-80.,-75.,80.));
#971=CARTESIAN_POINT('',(-80.,-80.,80.));
#972=CARTESIAN_POINT('',(-75.,-80.,80.));
#973=CARTESIAN_POINT('Origin',(-75.,-75.,80.));
#974=CARTESIAN_POINT('',(75.,-80.,80.));
#975=CARTESIAN_POINT('',(80.,-80.,80.));
#976=CARTESIAN_POINT('',(80.,-75.,80.));
#977=CARTESIAN_POINT('Origin',(75.,-75.,80.));
#978=CARTESIAN_POINT('',(80.,75.,80.));
#979=CARTESIAN_POINT('',(80.,80.,80.));
#980=CARTESIAN_POINT('Origin',(75.,75.,80.));
#981=CARTESIAN_POINT('Origin',(75.,75.,20.));
#982=CARTESIAN_POINT('',(80.,75.,20.));
#983=CARTESIAN_POINT('',(80.,75.,20.));
#984=CARTESIAN_POINT('Origin',(75.,75.,20.));
#985=CARTESIAN_POINT('Origin',(80.,-80.,20.));
#986=CARTESIAN_POINT('',(80.,-75.,20.));
#987=CARTESIAN_POINT('',(80.,-75.,20.));
#988=CARTESIAN_POINT('',(80.,-80.,20.));
#989=CARTESIAN_POINT('Origin',(-75.,-75.,20.));
#990=CARTESIAN_POINT('',(-80.,-75.,20.));
#991=CARTESIAN_POINT('',(-80.,-75.,20.));
#992=CARTESIAN_POINT('',(-75.,-80.,20.));
#993=CARTESIAN_POINT('Origin',(-75.,-75.,20.));
#994=CARTESIAN_POINT('',(-75.,-80.,20.));
#995=CARTESIAN_POINT('Origin',(65.,-80.,20.));
#996=CARTESIAN_POINT('',(-65.,-80.,20.));
#997=CARTESIAN_POINT('',(-65.,-80.,20.));
#998=CARTESIAN_POINT('',(-65.,-80.,70.));
#999=CARTESIAN_POINT('',(-65.,-80.,20.));
#1000=CARTESIAN_POINT('',(65.,-80.,70.));
#1001=CARTESIAN_POINT('',(80.,-80.,70.));
#1002=CARTESIAN_POINT('',(65.,-80.,20.));
#1003=CARTESIAN_POINT('',(65.,-80.,20.));
#1004=CARTESIAN_POINT('',(75.,-80.,20.));
#1005=CARTESIAN_POINT('',(65.,-80.,20.));
#1006=CARTESIAN_POINT('',(75.,-80.,20.));
#1007=CARTESIAN_POINT('Origin',(75.,-75.,20.));
#1008=CARTESIAN_POINT('Origin',(75.,-75.,20.));
#1009=CARTESIAN_POINT('Origin',(8.88178419700125E-15,0.,70.));
#1010=CARTESIAN_POINT('',(65.,80.,70.));
#1011=CARTESIAN_POINT('',(-65.,80.,70.));
#1012=CARTESIAN_POINT('Origin',(-80.,80.,20.));
#1013=CARTESIAN_POINT('',(-80.,-80.,20.));
#1014=CARTESIAN_POINT('Origin',(-65.,-80.,20.));
#1015=CARTESIAN_POINT('',(-65.,80.,20.));
#1016=CARTESIAN_POINT('Origin',(-72.5,0.,20.));
#1017=CARTESIAN_POINT('Origin',(65.,80.,20.));
#1018=CARTESIAN_POINT('',(65.,80.,20.));
#1019=CARTESIAN_POINT('Origin',(72.5,0.,20.));
#1020=UNCERTAINTY_MEASURE_WITH_UNIT(LENGTH_MEASURE(0.01),#1024,
'DISTANCE_ACCURACY_VALUE',
'Maximum model space distance between geometric entities at asserted c
onnectivities');
#1021=UNCERTAINTY_MEASURE_WITH_UNIT(LENGTH_MEASURE(0.01),#1024,
'DISTANCE_ACCURACY_VALUE',
'Maximum model space distance between geometric entities at asserted c
onnectivities');
#1022=(
GEOMETRIC_REPRESENTATION_CONTEXT(3)
GLOBAL_UNCERTAINTY_ASSIGNED_CONTEXT((#1020))
GLOBAL_UNIT_ASSIGNED_CONTEXT((#1024,#1026,#1027))
REPRESENTATION_CONTEXT('','3D')
);
#1023=(
GEOMETRIC_REPRESENTATION_CONTEXT(3)
GLOBAL_UNCERTAINTY_ASSIGNED_CONTEXT((#1021))
GLOBAL_UNIT_ASSIGNED_CONTEXT((#1024,#1026,#1027))
REPRESENTATION_CONTEXT('','3D')
);
#1024=(
LENGTH_UNIT()
NAMED_UNIT(*)
SI_UNIT(.MILLI.,.METRE.)
);
#1025=(
LENGTH_UNIT()
NAMED_UNIT(*)
SI_UNIT($,.METRE.)
);
#1026=(
NAMED_UNIT(*)
PLANE_ANGLE_UNIT()
SI_UNIT($,.RADIAN.)
);
#1027=(
NAMED_UNIT(*)
SI_UNIT($,.STERADIAN.)
SOLID_ANGLE_UNIT()
);
#1028=SHAPE_DEFINITION_REPRESENTATION(#1029,#1030);
#1029=PRODUCT_DEFINITION_SHAPE('',$,#1032);
#1030=SHAPE_REPRESENTATION('',(#640),#1022);
#1031=PRODUCT_DEFINITION_CONTEXT('part definition',#1036,'design');
#1032=PRODUCT_DEFINITION('2026-02-16-19-43-41-414','switch-rack',#1033,
#1031);
#1033=PRODUCT_DEFINITION_FORMATION('',$,#1038);
#1034=PRODUCT_RELATED_PRODUCT_CATEGORY('switch-rack','switch-rack',(#1038));
#1035=APPLICATION_PROTOCOL_DEFINITION('international standard',
'automotive_design',2009,#1036);
#1036=APPLICATION_CONTEXT(
'Core Data for Automotive Mechanical Design Process');
#1037=PRODUCT_CONTEXT('part definition',#1036,'mechanical');
#1038=PRODUCT('2026-02-16-19-43-41-414','switch-rack',$,(#1037));
#1039=PRESENTATION_STYLE_ASSIGNMENT((#1041));
#1040=PRESENTATION_STYLE_ASSIGNMENT((#1042));
#1041=SURFACE_STYLE_USAGE(.BOTH.,#1043);
#1042=SURFACE_STYLE_USAGE(.BOTH.,#1044);
#1043=SURFACE_SIDE_STYLE('',(#1045));
#1044=SURFACE_SIDE_STYLE('',(#1046));
#1045=SURFACE_STYLE_FILL_AREA(#1047);
#1046=SURFACE_STYLE_FILL_AREA(#1048);
#1047=FILL_AREA_STYLE('Steel - Satin',(#1049));
#1048=FILL_AREA_STYLE('EPX 86FR (with Carbon M2 M3 L1 3D Printers)',(#1050));
#1049=FILL_AREA_STYLE_COLOUR('Steel - Satin',#1051);
#1050=FILL_AREA_STYLE_COLOUR(
'EPX 86FR (with Carbon M2 M3 L1 3D Printers)',#1052);
#1051=COLOUR_RGB('Steel - Satin',0.627450980392157,0.627450980392157,0.627450980392157);
#1052=COLOUR_RGB('EPX 86FR (with Carbon M2 M3 L1 3D Printers)',0.247058823529412,
0.247058823529412,0.247058823529412);
ENDSEC;
END-ISO-10303-21;
